<?xml version="1.0" encoding="utf-8"?>
<!-- Generator: Adobe Illustrator 25.0.1, SVG Export Plug-In . SVG Version: 6.00 Build 0)  -->
<svg version="1.1" id="Layer_1" xmlns="http://www.w3.org/2000/svg" xmlns:xlink="http://www.w3.org/1999/xlink" x="0px" y="0px"
	 viewBox="0 0 591.5 435.2" style="enable-background:new 0 0 591.5 435.2;" xml:space="preserve">
<style type="text/css">
	.st0{fill:none;stroke:url(#SVGID_1_);stroke-width:11;stroke-miterlimit:10;}
	.st1{fill:url(#SVGID_2_);}
	.st2{fill:#FAD92F;}
	.st3{fill:#1A4203;}
	.st4{fill:url(#SVGID_3_);}
	.st5{fill:#1A420D;}
	.st6{fill:#896B31;}
	.st7{fill:none;stroke:url(#SVGID_4_);stroke-width:11;stroke-miterlimit:10;}
	.st8{fill:#DBB36B;stroke:#9B2927;stroke-width:4;stroke-miterlimit:10;}
	.st9{fill:url(#SVGID_5_);}
	.st10{fill:url(#SVGID_6_);}
	.st11{fill:url(#SVGID_7_);}
	.st12{fill:url(#SVGID_8_);}
	.st13{fill:url(#SVGID_9_);}
	.st14{fill:url(#SVGID_10_);}
	.st15{fill:url(#SVGID_11_);}
	.st16{fill:url(#SVGID_12_);}
	.st17{fill:#9B2927;}
	.st18{fill:url(#SVGID_13_);}
	.st19{fill:url(#SVGID_14_);}
	.st20{fill:url(#SVGID_15_);}
	.st21{fill:#167000;}
	.st22{fill:url(#SVGID_16_);}
	.st23{fill:url(#SVGID_17_);}
	.st24{fill:url(#SVGID_18_);}
	.st25{fill:url(#SVGID_19_);}
	.st26{fill:url(#SVGID_20_);}
	.st27{fill:url(#SVGID_21_);}
	.st28{fill:url(#SVGID_22_);}
	.st29{fill:url(#SVGID_23_);}
	.st30{fill:url(#SVGID_24_);}
	.st31{fill:url(#SVGID_25_);}
	.st32{fill:url(#SVGID_26_);}
	.st33{fill:url(#SVGID_27_);}
	.st34{fill:url(#SVGID_28_);}
	.st35{fill:url(#SVGID_29_);}
	.st36{fill:url(#SVGID_30_);}
	.st37{fill:url(#SVGID_31_);}
	.st38{fill:url(#SVGID_32_);}
	.st39{fill:url(#SVGID_33_);}
	.st40{fill:url(#SVGID_34_);}
</style>
<linearGradient id="SVGID_1_" gradientUnits="userSpaceOnUse" x1="88.762" y1="213.1803" x2="499.762" y2="213.1803" gradientTransform="matrix(1 0 0 -1 0 428.7606)">
	<stop  offset="5.338253e-04" style="stop-color:#000300;stop-opacity:0.5"/>
	<stop  offset="0.9989" style="stop-color:#000000;stop-opacity:0.5"/>
</linearGradient>
<ellipse class="st0" cx="294.3" cy="215.6" rx="200" ry="198.8"/>
<g>
	
		<linearGradient id="SVGID_2_" gradientUnits="userSpaceOnUse" x1="470.862" y1="-113.7197" x2="579.662" y2="-113.7197" gradientTransform="matrix(1 0 0 -1 0 140.7606)">
		<stop  offset="0" style="stop-color:#297413"/>
		<stop  offset="0.2641" style="stop-color:#23781A"/>
		<stop  offset="0.6454" style="stop-color:#14842D"/>
		<stop  offset="1" style="stop-color:#009245"/>
	</linearGradient>
	<path class="st1" d="M579.7,310.9H470.9l60.2-44.6v-68.2h39c4.3,0,7.1,5.9,5,10.8l-19.7,45.7L579.7,310.9z"/>
	<polygon class="st2" points="577.2,305.2 479.8,305 479.9,299.7 574.8,299.8 	"/>
	<polygon class="st3" points="470.9,310.9 470.9,290.7 498.2,290.7 	"/>
	<path class="st2" d="M524,203.3h45.4c0,0,5.5,0.3,5.8,4.8c-0.2,0.5-1.2,2.9-1.2,2.9s-0.9-2.5-4.6-2.5H524V203.3z"/>
</g>
<g>
	
		<linearGradient id="SVGID_3_" gradientUnits="userSpaceOnUse" x1="5.962" y1="-113.6697" x2="114.662" y2="-113.6697" gradientTransform="matrix(1 0 0 -1 0 140.7606)">
		<stop  offset="0" style="stop-color:#009245"/>
		<stop  offset="0.3546" style="stop-color:#14842D"/>
		<stop  offset="0.7359" style="stop-color:#23781A"/>
		<stop  offset="1" style="stop-color:#297413"/>
	</linearGradient>
	<path class="st4" d="M6,310.9h108.7L55,266.6V198H18.3c-5.5,0-8.9,7.6-6.3,13.7l18.4,42.8L6,310.9z"/>
	<polygon class="st2" points="9,304.1 106.4,303.8 106.3,298.5 11.3,298.6 	"/>
	<polygon class="st5" points="114.8,310.9 114.8,290.7 87.5,290.7 	"/>
	<path class="st2" d="M61.9,203.3H16.5c0,0-5.2,0.3-5.4,4.8c0.2,2,0.7,3.2,0.7,3.2s1-2.7,4.7-2.7h45.4V203.3z"/>
</g>
<g>
	<ellipse class="st6" cx="291.8" cy="210.8" rx="202" ry="204"/>
	
		<linearGradient id="SVGID_4_" gradientUnits="userSpaceOnUse" x1="112.962" y1="213.8803" x2="475.762" y2="213.8803" gradientTransform="matrix(1 0 0 -1 0 428.7606)">
		<stop  offset="5.338253e-04" style="stop-color:#000300;stop-opacity:0.5"/>
		<stop  offset="0.9989" style="stop-color:#000000;stop-opacity:0.5"/>
	</linearGradient>
	<ellipse class="st7" cx="294.4" cy="214.9" rx="175.9" ry="174.3"/>
	<ellipse class="st8" cx="291.8" cy="212" rx="179.6" ry="177.8"/>
</g>
<g>
	<g>
		
			<linearGradient id="SVGID_5_" gradientUnits="userSpaceOnUse" x1="150.462" y1="293.1803" x2="202.2291" y2="293.1803" gradientTransform="matrix(1 0 0 -1 0 428.7606)">
			<stop  offset="5.338253e-04" style="stop-color:#000300;stop-opacity:0.5"/>
			<stop  offset="0.9989" style="stop-color:#000000;stop-opacity:0.5"/>
		</linearGradient>
		<path class="st9" d="M150.5,113.7c7-3.8,10.7-5.8,17.7-9.9c2.9,0.4,4.3,0.7,7.1,1.3c4.9,8.6,7.2,13,12,22.2
			c-0.9,2.4-1.4,3.7-2.2,6.1c5.9,7.4,11.6,15,17.1,22.6c-3,1.5-4.5,2.3-7.5,3.8c-5.4-7.5-11-14.8-16.8-22.1
			c-1.3,0.6-1.9,1.1-3.3,1.7c4.2,8,8.2,16.2,12.1,24.3c-3.1,1.5-4.6,2.2-7.6,3.7C170.4,149.3,160.9,131.4,150.5,113.7z M178.3,128.7
			c-3.6-6.9-5.4-10.2-9.1-16.6c-1-0.2-1.4-0.3-2.3-0.4c-2.2,1.3-3.4,1.9-5.5,3.1c4.3,7.4,6.4,11.2,10.7,19.1c2.2-1.2,3.3-1.7,5.5-3
			C177.8,130,178,129.6,178.3,128.7z"/>
		
			<linearGradient id="SVGID_6_" gradientUnits="userSpaceOnUse" x1="180.6066" y1="311.4303" x2="230.2434" y2="311.4303" gradientTransform="matrix(1 0 0 -1 0 428.7606)">
			<stop  offset="5.338253e-04" style="stop-color:#000300;stop-opacity:0.5"/>
			<stop  offset="0.9989" style="stop-color:#000000;stop-opacity:0.5"/>
		</linearGradient>
		<path class="st10" d="M227.3,146.9c-5.4,2.5-8.2,3.8-13.6,6.3c-2.9-1.1-4.4-1.6-7.2-2.7c-8.3-18.7-16.9-37.3-25.8-55.7
			c3.2-1.8,4.8-2.7,8.1-4.5c8.4,17.6,16.4,35.3,24.3,53.1c1,0.3,1.5,0.5,2.4,0.8c1.7-0.7,2.4-1.2,4.2-2c0.4-1,0.5-1.5,1-2.5
			c-7.9-18-15.9-36-24.3-53.7c3.2-1.8,4.9-2.7,8.1-4.5c8.8,19.2,17.5,38.6,25.9,58.1C229.1,142.4,228.5,144,227.3,146.9z"/>
		
			<linearGradient id="SVGID_7_" gradientUnits="userSpaceOnUse" x1="218.962" y1="323.2303" x2="259.862" y2="323.2303" gradientTransform="matrix(1 0 0 -1 0 428.7606)">
			<stop  offset="5.338253e-04" style="stop-color:#000300;stop-opacity:0.5"/>
			<stop  offset="0.9989" style="stop-color:#000000;stop-opacity:0.5"/>
		</linearGradient>
		<path class="st11" d="M245.9,71.5c4.7,19.9,9.3,39.7,14,59.5c-1.7,2.9-2.4,4.2-4.2,7.1c-8.1,2.1-12.1,3.3-20.2,5.4
			c-5.4-23-10.9-45.9-16.5-68.9c8.1-2.9,12.1-4.2,20.2-7C241.9,69.2,243.3,69.9,245.9,71.5z M250.2,129.5c-3.9-17.1-8-34.2-12-51.3
			c-0.9-0.5-1.4-0.7-2.2-1.3c-2.7,0.8-3.9,1.3-6.6,2.2c4.4,18.2,8.6,36.4,12.9,54.5c2.7-0.7,3.9-1.1,6.6-1.8
			C249.5,130.9,249.7,130.3,250.2,129.5z"/>
		
			<linearGradient id="SVGID_8_" gradientUnits="userSpaceOnUse" x1="258.4619" y1="330.8303" x2="289.562" y2="330.8303" gradientTransform="matrix(1 0 0 -1 0 428.7606)">
			<stop  offset="5.338253e-04" style="stop-color:#000300;stop-opacity:0.5"/>
			<stop  offset="0.9989" style="stop-color:#000000;stop-opacity:0.5"/>
		</linearGradient>
		<path class="st12" d="M258.5,68.7c2-2.6,3.1-3.9,5.1-6.6c5.9-0.8,8.8-1.2,14.7-1.9c2.4,2.1,3.7,3.1,6.2,5.2
			c0.5,6.2,0.7,9.4,1.3,15.7c-3.6,0.3-5.4,0.5-9.1,1c-0.4-4.7-0.6-7-1-11.5c-0.9-0.7-1.3-1.1-2-1.7c-1.7,0.2-2.6,0.3-4.3,0.5
			c-0.6,0.8-1.1,1.3-1.7,2.2c1.5,18,3.1,35.9,4.6,53.8c0.9,0.7,1.2,1.1,2,1.8c1.7-0.2,2.6-0.2,4.2-0.4c0.6-0.8,1.1-1.3,1.7-2.1
			c-0.6-8-1.1-12.2-1.7-20.2c-1.8,0.2-2.7,0.3-4.5,0.5c-0.3-3.4-0.4-5-0.7-8.4c5.4-0.6,8.1-0.8,13.5-1.4c1,10.9,1.8,21.8,2.8,32.7
			c-2,2.5-3.1,3.8-5.1,6.3c-5.9,0.5-8.8,0.8-14.7,1.5c-2.4-2.1-3.6-3.2-6.1-5.2C262.1,109.8,260.3,89.3,258.5,68.7z"/>
		
			<linearGradient id="SVGID_9_" gradientUnits="userSpaceOnUse" x1="297.762" y1="331.1303" x2="350.0616" y2="331.1303" gradientTransform="matrix(1 0 0 -1 0 428.7606)">
			<stop  offset="5.338253e-04" style="stop-color:#000300;stop-opacity:0.5"/>
			<stop  offset="0.9989" style="stop-color:#000000;stop-opacity:0.5"/>
		</linearGradient>
		<path class="st13" d="M322,135.7c0.4-20.8,0.7-41.6,1.2-62.4c-3.6,20.4-7.2,40.8-10.8,61.2c-5-0.5-7.5-0.8-12.5-1.4
			c-0.7-25-1.4-49.9-2.1-74.9c3.7,0.4,5.6,0.6,9.4,1.1c-0.2,21.5-0.5,42.9-0.7,64.4c4-20.9,8.2-41.9,12.4-62.8
			c4.5,0.6,6.7,1,11.2,1.7c0,21.4,0,42.6,0.1,64c3.8-20.6,7.6-41.4,11.4-62c3.5,0.6,5.2,1,8.6,1.6c-5.4,23.6-10.8,47.3-16.1,70.9
			C329.2,136.6,326.9,136.3,322,135.7z"/>
		
			<linearGradient id="SVGID_10_" gradientUnits="userSpaceOnUse" x1="343.8967" y1="321.6803" x2="370.739" y2="321.6803" gradientTransform="matrix(1 0 0 -1 0 428.7606)">
			<stop  offset="5.338253e-04" style="stop-color:#000300;stop-opacity:0.5"/>
			<stop  offset="0.9989" style="stop-color:#000000;stop-opacity:0.5"/>
		</linearGradient>
		<path class="st14" d="M362.3,71.4c3.4,1.3,5.1,1.9,8.5,3.3c-6.2,22.6-12.2,45.4-18.3,68.1c-3.4-1.1-5.1-1.6-8.5-2.5
			C350,117.3,356.1,94.4,362.3,71.4z"/>
		
			<linearGradient id="SVGID_11_" gradientUnits="userSpaceOnUse" x1="358.462" y1="311.9303" x2="403.412" y2="311.9303" gradientTransform="matrix(1 0 0 -1 0 428.7606)">
			<stop  offset="5.338253e-04" style="stop-color:#000300;stop-opacity:0.5"/>
			<stop  offset="0.9989" style="stop-color:#000000;stop-opacity:0.5"/>
		</linearGradient>
		<path class="st15" d="M380.7,84.5c2.9-0.8,4.4-1.3,7.2-2.1c5,2.7,7.6,4,12.6,6.8c1.2,3,1.8,4.4,3,7.4c-2.3,5.3-3.5,8-5.9,13.4
			c-3.3-1.6-4.9-2.4-8.2-4.1c1.8-4.2,2.8-6.3,4.6-10.5c-0.4-1-0.6-1.5-1-2.4c-1.2-0.6-1.8-1-3.1-1.6c-1,0.3-1.4,0.4-2.3,0.7
			c-6.6,15.4-13,30.9-19.4,46.4c0.4,1,0.6,1.5,1.1,2.4c1.3,0.5,1.8,0.8,3.1,1.4c1-0.4,1.5-0.5,2.4-1c1.8-4.4,2.7-6.6,4.5-11
			c3.3,1.5,4.9,2.2,8.2,3.7c-2.3,5.7-3.6,8.6-6,14.4c-2.9,1.2-4.4,1.7-7.2,2.9c-5-2.2-7.6-3.3-12.7-5.5c-1.2-3-1.8-4.4-3.1-7.5
			C365.7,120.5,373,102.5,380.7,84.5z"/>
		
			<linearGradient id="SVGID_12_" gradientUnits="userSpaceOnUse" x1="383.262" y1="296.4303" x2="436.562" y2="296.4303" gradientTransform="matrix(1 0 0 -1 0 428.7606)">
			<stop  offset="5.338253e-04" style="stop-color:#000300;stop-opacity:0.5"/>
			<stop  offset="0.9989" style="stop-color:#000000;stop-opacity:0.5"/>
		</linearGradient>
		<path class="st16" d="M397.8,144.6c-2.6,5.6-3.8,8.4-6.5,14.1c-3.2-1.4-4.8-2-8-3.4c8.6-19,17.6-37.9,27.5-56.6
			c3.2,1.6,4.9,2.4,8.1,4c-5.1,9.5-10,19-14.8,28.7c7.9-8.2,16-16.2,24.4-24c3.2,1.6,4.9,2.3,8.1,3.9c-7.3,6.1-14.4,12.6-21.1,19.1
			c-2.1,11.8-4.2,23.7-6.1,35.6c-3.3-1.3-5-2-8.3-3.4c1.7-8.8,3.5-17.6,5.3-26.2C403.1,139.6,401.2,141.2,397.8,144.6z"/>
	</g>
</g>
<g>
	<g>
		<path class="st17" d="M147.8,113.8c7-3.8,10.7-5.8,17.7-9.9c2.9,0.4,4.3,0.7,7.1,1.3c4.9,8.6,7.2,13,12,22.2
			c-0.9,2.4-1.4,3.7-2.2,6.1c5.9,7.4,11.6,15,17.1,22.6c-3,1.5-4.5,2.3-7.5,3.8c-5.4-7.5-11-14.8-16.8-22.1
			c-1.3,0.6-1.9,1.1-3.3,1.7c4.2,8,8.2,16.2,12.1,24.3c-3.1,1.5-4.6,2.2-7.6,3.7C167.7,149.4,158.2,131.5,147.8,113.8z M175.6,128.9
			c-3.6-6.9-5.4-10.2-9.1-16.6c-1-0.2-1.4-0.3-2.3-0.4c-2.2,1.3-3.4,1.9-5.5,3.1c4.3,7.4,6.4,11.2,10.7,19.1c2.2-1.2,3.3-1.7,5.5-3
			C175,130.1,175.3,129.7,175.6,128.9z"/>
		<path class="st17" d="M224.6,147c-5.4,2.5-8.2,3.8-13.6,6.3c-2.9-1.1-4.4-1.6-7.2-2.7c-8.3-18.7-16.9-37.3-25.8-55.7
			c3.2-1.8,4.8-2.7,8.1-4.5c8.4,17.6,16.4,35.3,24.3,53.1c1,0.3,1.5,0.5,2.4,0.8c1.7-0.7,2.4-1.2,4.2-2c0.4-1,0.5-1.5,1-2.5
			c-7.9-18-15.9-36-24.3-53.7c3.2-1.8,4.9-2.7,8.1-4.5c8.8,19.2,17.5,38.6,25.9,58.1C226.4,142.5,225.7,144.1,224.6,147z"/>
		<path class="st17" d="M243.2,71.6c4.7,19.9,9.3,39.7,14,59.5c-1.7,2.9-2.4,4.2-4.2,7.1c-8.1,2.1-12.1,3.3-20.2,5.4
			c-5.4-23-10.9-45.9-16.5-68.9c8.1-2.9,12.1-4.2,20.2-7C239.2,69.3,240.6,70,243.2,71.6z M247.5,129.6c-3.9-17.1-8-34.2-12-51.3
			c-0.9-0.5-1.4-0.7-2.2-1.3c-2.7,0.8-3.9,1.3-6.6,2.2c4.4,18.2,8.6,36.4,12.9,54.5c2.7-0.7,3.9-1.1,6.6-1.8
			C246.7,131,246.9,130.4,247.5,129.6z"/>
		<path class="st17" d="M255.8,68.8c2-2.6,3.1-3.9,5.1-6.6c5.9-0.8,8.8-1.2,14.7-1.9c2.4,2.1,3.7,3.1,6.2,5.2
			c0.5,6.2,0.7,9.4,1.3,15.7c-3.6,0.3-5.4,0.5-9.1,1c-0.4-4.7-0.6-7-1-11.5c-0.9-0.7-1.3-1.1-2-1.7c-1.7,0.2-2.6,0.3-4.3,0.5
			c-0.6,0.8-1.1,1.3-1.7,2.2c1.5,18,3.1,35.9,4.6,53.8c0.9,0.7,1.2,1.1,2,1.8c1.7-0.2,2.6-0.2,4.2-0.4c0.6-0.8,1.1-1.3,1.7-2.1
			c-0.6-8-1.1-12.2-1.7-20.2c-1.8,0.2-2.7,0.3-4.5,0.5c-0.3-3.4-0.4-5-0.7-8.4c5.4-0.6,8.1-0.8,13.5-1.4c1,10.9,1.8,21.8,2.8,32.7
			c-2,2.5-3.1,3.8-5.1,6.3c-5.9,0.5-8.8,0.8-14.7,1.5c-2.4-2.1-3.6-3.2-6.1-5.2C259.4,109.9,257.6,89.4,255.8,68.8z"/>
		<path class="st17" d="M319.3,135.8c0.4-20.8,0.7-41.6,1.2-62.4c-3.6,20.4-7.2,40.8-10.8,61.2c-5-0.5-7.5-0.8-12.5-1.4
			c-0.7-25-1.4-49.9-2.1-74.9c3.7,0.4,5.6,0.6,9.4,1.1c-0.2,21.5-0.5,42.9-0.7,64.4c4-20.9,8.2-41.9,12.4-62.8
			c4.5,0.6,6.7,1,11.2,1.7c0,21.4,0,42.6,0.1,64c3.8-20.6,7.6-41.4,11.4-62c3.5,0.6,5.2,1,8.6,1.6c-5.4,23.6-10.8,47.3-16.1,70.9
			C326.5,136.7,324.2,136.4,319.3,135.8z"/>
		<path class="st17" d="M359.5,71.5c3.4,1.3,5.1,1.9,8.5,3.3c-6.2,22.6-12.2,45.4-18.3,68.1c-3.4-1.1-5.1-1.6-8.5-2.5
			C347.3,117.4,353.4,94.5,359.5,71.5z"/>
		<path class="st17" d="M378,84.6c2.9-0.8,4.4-1.3,7.2-2.1c5,2.7,7.6,4,12.6,6.8c1.2,3,1.8,4.4,3,7.4c-2.3,5.3-3.5,8-5.9,13.4
			c-3.3-1.6-4.9-2.4-8.2-4.1c1.8-4.2,2.8-6.3,4.6-10.5c-0.4-1-0.6-1.5-1-2.4c-1.2-0.6-1.8-1-3.1-1.6c-1,0.3-1.4,0.4-2.3,0.7
			c-6.6,15.4-13,30.9-19.4,46.4c0.4,1,0.6,1.5,1.1,2.4c1.3,0.5,1.8,0.8,3.1,1.4c1-0.4,1.5-0.5,2.4-1c1.8-4.4,2.7-6.6,4.5-11
			c3.3,1.5,4.9,2.2,8.2,3.7c-2.3,5.7-3.6,8.6-6,14.4c-2.9,1.2-4.4,1.7-7.2,2.9c-5-2.2-7.6-3.3-12.7-5.5c-1.2-3-1.8-4.4-3.1-7.5
			C362.9,120.6,370.3,102.6,378,84.6z"/>
		<path class="st17" d="M395.1,144.7c-2.6,5.6-3.8,8.4-6.5,14.1c-3.2-1.4-4.8-2-8-3.4c8.6-19,17.6-37.9,27.5-56.6
			c3.2,1.6,4.9,2.4,8.1,4c-5.1,9.5-10,19-14.8,28.7c7.9-8.2,16-16.2,24.4-24c3.2,1.6,4.9,2.3,8.1,3.9c-7.3,6.1-14.4,12.6-21.1,19.1
			c-2.1,11.8-4.2,23.7-6.1,35.6c-3.3-1.3-5-2-8.3-3.4c1.7-8.8,3.5-17.6,5.3-26.2C400.3,139.7,398.5,141.3,395.1,144.7z"/>
	</g>
</g>
<linearGradient id="SVGID_13_" gradientUnits="userSpaceOnUse" x1="155.2689" y1="250.8803" x2="431.455" y2="250.8803" gradientTransform="matrix(1 0 0 -1 0 428.7606)">
	<stop  offset="5.338253e-04" style="stop-color:#000300;stop-opacity:0.5"/>
	<stop  offset="0.9989" style="stop-color:#000000;stop-opacity:0.5"/>
</linearGradient>
<path class="st18" d="M293.4,152c-11.6,12.3-1.8,21.3-15.8,19.7c-4.3-0.7-0.4-9.2-7.2-14.5c-6.8-5.2-24.1-1.8-10.1,2.6
	c14,4.4,9.3,12.8,9.3,12.8c0.2,11.7,22.6,4.4,9.6,11c-26.5,18.6-63.8,7.7-51.7-13c17.8-10,14,9.4,14,9.4c-15.3-4.7,3.5,7.4,3.5,7.4
	c27.2,0,6.4-21,6.4-21c-30.7-27.5-35.9,9.8-35.9,9.8c-17.8-13.6-46.1,8.2-46.1,8.2c-21.7-0.8-13.6,5.1-6.8,6.9
	c6.8,1.9,16.7-9.7,18.1,0c1.4,9.7,16,12.5,16,12.5c30.6-5.1,3.2-13.3,3.2-13.3c-9.5,0-3.8,3-3.8,3c6.7,0,3.7,3.7,3.7,3.7
	c-12,0.8-10.5-5.6-10.5-5.6c8.5-38.4,55.5,39.6,96.3-4.4l7.8-0.4l7.8,0.4c40.8,44,87.7-34,96.3,4.4c0,0,1.6,6.6-10.5,5.6
	c0,0-3-3.7,3.7-3.7c0,0,5.6-3-3.8-3c0,0-27.3,8.2,3.2,13.3c0,0,14.6-2.6,16-12.5c1.4-9.8,11.3,1.9,18.1,0c6.8-1.9,14.9-7.8-6.8-6.9
	c0,0-28.3-21.9-46.1-8.2c0,0-5.2-37.3-35.9-9.8c0,0-20.7,21,6.4,21c0,0,18.9-12,3.5-7.4c0,0-3.8-19.5,14-9.4
	c12.1,20.7-25,31.5-51.7,13c-13-6.5,9.4,0.8,9.6-11c0,0-4.7-8.4,9.3-12.8s-3.3-7.9-10.1-2.6c-6.8,5.2-2.9,13.7-7.2,14.5
	C295.2,173.3,305,164.3,293.4,152"/>
<linearGradient id="SVGID_14_" gradientUnits="userSpaceOnUse" x1="143.9928" y1="151.3803" x2="444.4929" y2="151.3803" gradientTransform="matrix(1 0 0 -1 0 428.7606)">
	<stop  offset="5.338253e-04" style="stop-color:#000300;stop-opacity:0.5"/>
	<stop  offset="0.9989" style="stop-color:#000000;stop-opacity:0.5"/>
</linearGradient>
<path class="st19" d="M294.5,251.5c-12.6,12.3-2,21.3-17.2,19.7c-4.6-0.7-0.5-9.2-7.9-14.5c-7.4-5.2-26.2-1.8-11,2.6
	c15.2,4.4,10.1,12.8,10.1,12.8c0.2,11.7,24.6,4.4,10.4,11c-28.9,18.6-69.4,7.7-56.2-13c19.4-10,15.2,9.4,15.2,9.4
	c-16.7-4.7,3.8,7.4,3.8,7.4c29.6,0,7-21,7-21c-33.4-27.5-39.1,9.8-39.1,9.8c-19.4-13.6-50.2,8.2-50.2,8.2
	c-23.7-0.8-14.8,5.1-7.4,6.9c7.4,1.9,18.2-9.7,19.7,0s17.4,12.5,17.4,12.5c33.3-5.1,3.5-13.3,3.5-13.3c-10.3,0-4.2,3-4.2,3
	c7.3,0,4.1,3.7,4.1,3.7c-13.1,0.8-11.5-5.6-11.5-5.6c9.3-38.4,60.4,39.6,104.8-4.4l8.5-0.4l8.5,0.4c44.4,44,95.4-34,104.8,4.4
	c0,0,1.7,6.6-11.5,5.6c0,0-3.2-3.7,4.1-3.7c0,0,6.1-3-4.2-3c0,0-29.7,8.2,3.5,13.3c0,0,15.9-2.6,17.4-12.5s12.3,1.9,19.7,0
	s16.2-7.8-7.4-6.9c0,0-30.8-21.9-50.2-8.2c0,0-5.7-37.3-39.1-9.8c0,0-22.5,21,7,21c0,0,20.5-12,3.8-7.4c0,0-4.2-19.5,15.2-9.4
	c13.2,20.7-27.2,31.5-56.2,13c-14.1-6.5,10.2,0.8,10.4-11c0,0-5.1-8.4,10.1-12.8s-3.6-7.9-11-2.6c-7.4,5.2-3.1,13.7-7.9,14.5
	C296.5,272.7,307.1,263.7,294.5,251.5"/>
<path class="st17" d="M292.7,250c-12.6,12.3-2,21.3-17.2,19.7c-4.6-0.7-0.5-9.2-7.9-14.5c-7.4-5.2-26.2-1.8-11,2.6
	c15.2,4.4,10.1,12.8,10.1,12.8c0.2,11.7,24.6,4.4,10.4,11c-28.9,18.6-69.4,7.7-56.2-13c19.4-10,15.2,9.4,15.2,9.4
	c-16.7-4.7,3.8,7.4,3.8,7.4c29.6,0,7-21,7-21c-33.4-27.5-39.1,9.8-39.1,9.8c-19.4-13.6-50.2,8.2-50.2,8.2
	c-23.7-0.8-14.8,5.1-7.4,6.9c7.4,1.9,18.2-9.7,19.7,0s17.4,12.5,17.4,12.5c33.3-5.1,3.5-13.3,3.5-13.3c-10.3,0-4.2,3-4.2,3
	c7.3,0,4.1,3.7,4.1,3.7c-13.1,0.8-11.5-5.6-11.5-5.6c9.3-38.4,60.4,39.6,104.8-4.4l8.5-0.4l8.5,0.4c44.4,44,95.4-34,104.8,4.4
	c0,0,1.7,6.6-11.5,5.6c0,0-3.2-3.7,4.1-3.7c0,0,6.1-3-4.2-3c0,0-29.7,8.2,3.5,13.3c0,0,15.9-2.6,17.4-12.5c1.5-9.8,12.3,1.9,19.7,0
	c7.4-1.9,16.2-7.8-7.4-6.9c0,0-30.8-21.9-50.2-8.2c0,0-5.7-37.3-39.1-9.8c0,0-22.5,21,7,21c0,0,20.5-12,3.8-7.4
	c0,0-4.2-19.5,15.2-9.4c13.2,20.7-27.2,31.5-56.2,13c-14.1-6.5,10.2,0.8,10.4-11c0,0-5.1-8.4,10.1-12.8s-3.6-7.9-11-2.6
	c-7.4,5.2-3.1,13.7-7.9,14.5C294.7,271.2,305.4,262.2,292.7,250"/>
<path class="st17" d="M292.2,152.9c-11.6,12.3-1.8,21.3-15.8,19.7c-4.3-0.7-0.4-9.2-7.2-14.5c-6.8-5.2-24.1-1.8-10.1,2.6
	c14,4.4,9.3,12.8,9.3,12.8c0.2,11.7,22.6,4.4,9.6,11c-26.5,18.6-63.8,7.7-51.7-13c17.8-10,14,9.4,14,9.4c-15.3-4.7,3.5,7.4,3.5,7.4
	c27.2,0,6.4-21,6.4-21c-30.7-27.5-35.9,9.8-35.9,9.8c-17.8-13.6-46.1,8.2-46.1,8.2c-21.7-0.8-13.6,5.1-6.8,6.9
	c6.8,1.9,16.7-9.7,18.1,0s16,12.5,16,12.5c30.6-5.1,3.2-13.3,3.2-13.3c-9.5,0-3.8,3-3.8,3c6.7,0,3.7,3.7,3.7,3.7
	c-12,0.8-10.5-5.6-10.5-5.6c8.5-38.4,55.5,39.6,96.3-4.4l7.8-0.4l7.8,0.4c40.8,44,87.7-34,96.3,4.4c0,0,1.6,6.6-10.5,5.6
	c0,0-3-3.7,3.7-3.7c0,0,5.6-3-3.8-3c0,0-27.3,8.2,3.2,13.3c0,0,14.6-2.6,16-12.5s11.3,1.9,18.1,0c6.8-1.9,14.9-7.8-6.8-6.9
	c0,0-28.3-21.9-46.1-8.2c0,0-5.2-37.3-35.9-9.8c0,0-20.7,21,6.4,21c0,0,18.9-12,3.5-7.4c0,0-3.8-19.5,14-9.4
	c12.1,20.7-25,31.5-51.7,13c-13-6.5,9.4,0.8,9.6-11c0,0-4.7-8.4,9.3-12.8s-3.3-7.9-10.1-2.6c-6.8,5.2-2.9,13.7-7.2,14.5
	C294,174.1,303.8,165.1,292.2,152.9"/>
<linearGradient id="SVGID_15_" gradientUnits="userSpaceOnUse" x1="292.5111" y1="225.7326" x2="293.7224" y2="22.2253" gradientTransform="matrix(1 0 0 -1 0 428.7606)">
	<stop  offset="5.338253e-04" style="stop-color:#000300;stop-opacity:0.5"/>
	<stop  offset="0.9989" style="stop-color:#000000;stop-opacity:0.5"/>
</linearGradient>
<path class="st20" d="M61.1,213.6h463c3.1,0,5.6,2.5,5.6,5.4l2.2,68.6c0,3-0.9,10.8-7.9,10.8H59.3c-5.2-0.5-5.1-9.3-5.1-12.3
	l1.2-67.2C55.5,216,58,213.6,61.1,213.6z"/>
<path class="st21" d="M59.9,166.2h466.4c3.1,0,5.7,3.7,5.7,8.2v111.8c0,4.5-2.6,8.2-5.7,8.2H59.9c-3.1,0-5.7-3.7-5.7-8.2V174.4
	C54.2,169.8,56.8,166.2,59.9,166.2z"/>
<g>
	
		<linearGradient id="SVGID_16_" gradientUnits="userSpaceOnUse" x1="54.162" y1="244.3803" x2="531.962" y2="244.3803" gradientTransform="matrix(1 0 0 -1 0 428.7606)">
		<stop  offset="0" style="stop-color:#000300"/>
		<stop  offset="0.9989" style="stop-color:#000000;stop-opacity:0.5"/>
	</linearGradient>
	<path class="st22" d="M523.9,178.2H62.2c0,0-8,0.4-8,7.8v4.6c0,0,3.3-3.9,8-3.9H524c4.7,0,8,3.9,8,3.9V186
		C531.9,178.5,523.9,178.2,523.9,178.2z"/>
	
		<linearGradient id="SVGID_17_" gradientUnits="userSpaceOnUse" x1="54.162" y1="151.6803" x2="531.962" y2="151.6803" gradientTransform="matrix(1 0 0 -1 0 428.7606)">
		<stop  offset="0" style="stop-color:#000300"/>
		<stop  offset="0.9989" style="stop-color:#000000;stop-opacity:0.5"/>
	</linearGradient>
	<path class="st23" d="M523.9,270.9H62.2c0,0-8,0.4-8,7.8v4.6c0,0,3.3-3.9,8-3.9H524c4.7,0,8,3.9,8,3.9v-4.6
		C531.9,271.4,523.9,270.9,523.9,270.9z"/>
</g>
<g>
	<path class="st2" d="M523.9,176.8H62.2c0,0-8,0.4-8,7.8v4.6c0,0,3.3-3.9,8-3.9H524c4.7,0,8,3.9,8,3.9v-4.6
		C531.9,177.1,523.9,176.8,523.9,176.8z"/>
	<path class="st2" d="M523.9,269.5H62.2c0,0-8,0.4-8,7.8v4.6c0,0,3.3-3.9,8-3.9H524c4.7,0,8,3.9,8,3.9v-4.6
		C531.9,269.9,523.9,269.5,523.9,269.5z"/>
</g>
<g>
	
		<linearGradient id="SVGID_18_" gradientUnits="userSpaceOnUse" x1="74.662" y1="198.2803" x2="100.462" y2="198.2803" gradientTransform="matrix(1 0 0 -1 0 428.7606)">
		<stop  offset="5.338253e-04" style="stop-color:#000300;stop-opacity:0.5"/>
		<stop  offset="0.9989" style="stop-color:#000000;stop-opacity:0.5"/>
	</linearGradient>
	<path class="st24" d="M91.1,207.2l-1.9-1.6h-3.3l-1.9,1.6V225l1.9,1.6h8.9l5.7,5.1v25.6l-5.7,5.1H80.4l-5.7-5.1V244h9v9.9l1.9,1.6
		h3.7l1.9-1.6v-18.7l-1.9-1.6h-8.9l-5.7-5.2v-24.7l5.7-5.1h13.9l5.7,5.1V217h-9L91.1,207.2L91.1,207.2z"/>
	
		<linearGradient id="SVGID_19_" gradientUnits="userSpaceOnUse" x1="103.1868" y1="198.2303" x2="129.4274" y2="198.2303" gradientTransform="matrix(1 0 0 -1 0 428.7606)">
		<stop  offset="5.338253e-04" style="stop-color:#000300;stop-opacity:0.5"/>
		<stop  offset="0.9989" style="stop-color:#000000;stop-opacity:0.5"/>
	</linearGradient>
	<path class="st25" d="M120.9,205.5v56.7h-9v-56.7h-8.6v-6.6h26.2v6.7h-8.6V205.5z"/>
	
		<linearGradient id="SVGID_20_" gradientUnits="userSpaceOnUse" x1="133.262" y1="198.0803" x2="155.862" y2="198.0803" gradientTransform="matrix(1 0 0 -1 0 428.7606)">
		<stop  offset="5.338253e-04" style="stop-color:#000300;stop-opacity:0.5"/>
		<stop  offset="0.9989" style="stop-color:#000000;stop-opacity:0.5"/>
	</linearGradient>
	<path class="st26" d="M133.4,198.9h22.3v6.9h-13.3v21.1H154v6.9h-11.6v21.8h13.5v6.9h-22.6L133.4,198.9L133.4,198.9z"/>
	
		<linearGradient id="SVGID_21_" gradientUnits="userSpaceOnUse" x1="158.562" y1="198.0803" x2="188.962" y2="198.0803" gradientTransform="matrix(1 0 0 -1 0 428.7606)">
		<stop  offset="5.338253e-04" style="stop-color:#000300;stop-opacity:0.5"/>
		<stop  offset="0.9989" style="stop-color:#000000;stop-opacity:0.5"/>
	</linearGradient>
	<path class="st27" d="M169.4,245.9l-1.8,16.3h-9l8.5-63.2h13.1l8.8,63.4h-9.4l-1.8-16.3h-8.4L169.4,245.9L169.4,245.9z
		 M173.5,207.2l-3.5,32h6.9L173.5,207.2z"/>
	
		<linearGradient id="SVGID_22_" gradientUnits="userSpaceOnUse" x1="192.9025" y1="198.1803" x2="232.9025" y2="198.1803" gradientTransform="matrix(1 0 0 -1 0 428.7606)">
		<stop  offset="5.338253e-04" style="stop-color:#000300;stop-opacity:0.5"/>
		<stop  offset="0.9989" style="stop-color:#000000;stop-opacity:0.5"/>
	</linearGradient>
	<path class="st28" d="M208.2,262.3l-7.1-49.6v49.6h-8.2v-63.4h13.2l6.7,51.3l6.7-51.3h13.4v63.4h-8.6v-49.8l-7.1,49.6L208.2,262.3
		L208.2,262.3z"/>
	
		<linearGradient id="SVGID_23_" gradientUnits="userSpaceOnUse" x1="253.662" y1="198.2303" x2="284.862" y2="198.2303" gradientTransform="matrix(1 0 0 -1 0 428.7606)">
		<stop  offset="5.338253e-04" style="stop-color:#000300;stop-opacity:0.5"/>
		<stop  offset="0.9989" style="stop-color:#000000;stop-opacity:0.5"/>
	</linearGradient>
	<path class="st29" d="M280.3,232.9v24.4l-5.7,5.1h-15.1l-5.7-5.1v-22.7l5.7-5.1l-5.8-5.1v-20.6l5.7-5.1h15.3l5.7,5.1v10.8h-9v-7.3
		l-1.9-1.6h-4.7l-1.9,1.6v17.1l1.9,1.6h20.1v6.9H280.3L280.3,232.9z M262.7,234.5v19.1l1.9,1.6h4.7l1.9-1.6v-20.9h-6.5L262.7,234.5z
		"/>
	
		<linearGradient id="SVGID_24_" gradientUnits="userSpaceOnUse" x1="303.5619" y1="198.1803" x2="328.962" y2="198.1803" gradientTransform="matrix(1 0 0 -1 0 428.7606)">
		<stop  offset="5.338253e-04" style="stop-color:#000300;stop-opacity:0.5"/>
		<stop  offset="0.9989" style="stop-color:#000000;stop-opacity:0.5"/>
	</linearGradient>
	<path class="st30" d="M303.6,203.9l5.7-5.1h14l5.7,5.1v14.2h-9v-10.9l-1.9-1.6h-3.4l-1.9,1.6v46.5l1.9,1.6h3.4l1.9-1.6v-10.8h9
		v14.4l-5.7,5.1h-14l-5.7-5.1L303.6,203.9L303.6,203.9z"/>
	
		<linearGradient id="SVGID_25_" gradientUnits="userSpaceOnUse" x1="333.7619" y1="198.2803" x2="360.9619" y2="198.2803" gradientTransform="matrix(1 0 0 -1 0 428.7606)">
		<stop  offset="5.338253e-04" style="stop-color:#000300;stop-opacity:0.5"/>
		<stop  offset="0.9989" style="stop-color:#000000;stop-opacity:0.5"/>
	</linearGradient>
	<path class="st31" d="M361,257.2l-5.7,5.1h-15.8l-5.7-5.1v-53.4l5.7-5.1h15.8l5.7,5.1V257.2z M344.9,205.7l-1.9,1.6v46.3l1.9,1.6
		h5.2l1.9-1.6v-46.3l-1.9-1.6H344.9z"/>
	
		<linearGradient id="SVGID_26_" gradientUnits="userSpaceOnUse" x1="366.733" y1="198.2803" x2="393.181" y2="198.2803" gradientTransform="matrix(1 0 0 -1 0 428.7606)">
		<stop  offset="5.338253e-04" style="stop-color:#000300;stop-opacity:0.5"/>
		<stop  offset="0.9989" style="stop-color:#000000;stop-opacity:0.5"/>
	</linearGradient>
	<path class="st32" d="M387.7,262.3h-15.2l-5.7-5.1v-58.5h9v54.9l1.9,1.6h4.7l1.9-1.6v-54.9h9v58.5L387.7,262.3z"/>
	
		<linearGradient id="SVGID_27_" gradientUnits="userSpaceOnUse" x1="399.5078" y1="198.1303" x2="427.9264" y2="198.1303" gradientTransform="matrix(1 0 0 -1 0 428.7606)">
		<stop  offset="5.338253e-04" style="stop-color:#000300;stop-opacity:0.5"/>
		<stop  offset="0.9989" style="stop-color:#000000;stop-opacity:0.5"/>
	</linearGradient>
	<path class="st33" d="M399.5,198.9h9.9l10.4,44v-44h8.2v63.4h-9.9L407.7,219v43.4h-8.2V198.9z"/>
	
		<linearGradient id="SVGID_28_" gradientUnits="userSpaceOnUse" x1="431.8619" y1="198.2303" x2="458.1025" y2="198.2303" gradientTransform="matrix(1 0 0 -1 0 428.7606)">
		<stop  offset="5.338253e-04" style="stop-color:#000300;stop-opacity:0.5"/>
		<stop  offset="0.9989" style="stop-color:#000000;stop-opacity:0.5"/>
	</linearGradient>
	<path class="st34" d="M449.5,205.5v56.7h-9v-56.7h-8.6v-6.6h26.2v6.7h-8.6V205.5z"/>
	
		<linearGradient id="SVGID_29_" gradientUnits="userSpaceOnUse" x1="462.162" y1="198.0803" x2="489.562" y2="198.0803" gradientTransform="matrix(1 0 0 -1 0 428.7606)">
		<stop  offset="5.338253e-04" style="stop-color:#000300;stop-opacity:0.5"/>
		<stop  offset="0.9989" style="stop-color:#000000;stop-opacity:0.5"/>
	</linearGradient>
	<path class="st35" d="M462.2,198.9h21l5.7,5.1v26.3l-5,4.5l5.7,27.7h-8.8l-5.6-27.1h-3.8v27.1h-9V199h-0.2V198.9z M479.7,227v-19.9
		l-1.9-1.6h-6.6v23.2h6.6L479.7,227z"/>
	
		<linearGradient id="SVGID_30_" gradientUnits="userSpaceOnUse" x1="491.92" y1="198.1803" x2="522.8279" y2="198.1803" gradientTransform="matrix(1 0 0 -1 0 428.7606)">
		<stop  offset="5.338253e-04" style="stop-color:#000300;stop-opacity:0.5"/>
		<stop  offset="0.9989" style="stop-color:#000000;stop-opacity:0.5"/>
	</linearGradient>
	<path class="st36" d="M503,262.3v-20.8l-11-42.6h9.7l5.7,31.1l5.7-31.1h9.7l-11,42.6v20.8H503z"/>
</g>
<g>
	<path class="st2" d="M88.8,205.7l-1.9-1.6h-3.3l-1.9,1.6v17.8l1.9,1.6h8.9l5.7,5.1v25.6l-5.7,5.1H78.1l-5.7-5.1v-13.4h9v9.9
		l1.9,1.6H87l1.9-1.6v-18.7L87,232h-8.9l-5.7-5.1v-24.7l5.7-5.1H92l5.7,5.1v13.3h-9L88.8,205.7L88.8,205.7z"/>
	<path class="st2" d="M118.5,204v56.7h-9V204h-8.6v-6.6h26.2v6.7h-8.6V204z"/>
	<path class="st2" d="M131.1,197.4h22.3v6.9h-13.3v21.1h11.6v6.9h-11.6v21.8h13.5v6.9H131L131.1,197.4L131.1,197.4z"/>
	<path class="st2" d="M167.1,244.4l-1.8,16.3h-9l8.5-63.2h13.1l8.8,63.4h-9.4l-1.8-16.3h-8.4L167.1,244.4L167.1,244.4z M171.2,205.7
		l-3.5,32h6.9L171.2,205.7z"/>
	<path class="st2" d="M205.9,260.8l-7.1-49.6v49.6h-8.2v-63.4h13.2l6.7,51.3l6.7-51.3h13.4v63.4H222V211l-7.1,49.6L205.9,260.8
		L205.9,260.8z"/>
	<path class="st2" d="M277.9,231.4v24.4l-5.7,5.1h-15.1l-5.7-5.1v-22.7l5.7-5.1l-5.7-5.1v-20.6l5.7-5.1h15.2l5.7,5.1v10.8h-9v-7.3
		l-1.9-1.6h-4.7l-1.9,1.6V223l1.9,1.6h20.1v6.9L277.9,231.4L277.9,231.4z M260.4,233v19.1l1.9,1.6h4.7l1.9-1.6v-20.9h-6.5L260.4,233
		z"/>
	<path class="st2" d="M301.3,202.4l5.7-5.1h14l5.7,5.1v14.2h-9v-10.9l-1.9-1.6h-3.4l-1.9,1.6v46.5l1.9,1.6h3.4l1.9-1.6v-10.8h9v14.4
		l-5.7,5.1h-14l-5.7-5.1V202.4z"/>
	<path class="st2" d="M358.6,255.7l-5.7,5.1h-15.8l-5.7-5.1v-53.3l5.7-5.1h15.8l5.7,5.1V255.7z M342.6,204.2l-1.9,1.6v46.3l1.9,1.6
		h5.2l1.9-1.6v-46.3l-1.9-1.6H342.6z"/>
	<path class="st2" d="M385.4,260.8h-15.2l-5.7-5.1v-58.5h9v54.9l1.9,1.6h4.7l1.9-1.6v-54.9h9v58.5L385.4,260.8z"/>
	<path class="st2" d="M397.2,197.4h9.9l10.4,44v-44h8.2v63.4h-9.9l-10.4-43.4v43.4h-8.2V197.4z"/>
	<path class="st2" d="M447.2,204v56.7h-9V204h-8.6v-6.6h26.2v6.7h-8.6V204z"/>
	<path class="st2" d="M459.9,197.4h21l5.7,5.1v26.3l-5,4.5l5.7,27.7h-8.8l-5.6-27.1h-3.8V261h-9v-63.6H459.9z M477.4,225.5v-19.9
		l-1.9-1.6h-6.6v23.2h6.6L477.4,225.5z"/>
	<path class="st2" d="M500.6,260.8V240l-11-42.6h9.7l5.7,31.1l5.7-31.1h9.7l-11,42.6v20.8H500.6z"/>
</g>
<g>
	
		<linearGradient id="SVGID_31_" gradientUnits="userSpaceOnUse" x1="223.9493" y1="85.5303" x2="248.1286" y2="85.5303" gradientTransform="matrix(1 0 0 -1 0 428.7606)">
		<stop  offset="5.338253e-04" style="stop-color:#000300;stop-opacity:0.5"/>
		<stop  offset="0.9989" style="stop-color:#000000;stop-opacity:0.5"/>
	</linearGradient>
	<path class="st37" d="M240.4,322.2l-1.4-1.8l-2.7-0.5l-1.6,1.3l-1.2,16.4l1.4,1.8l7.2,1.4l4.3,5.5l-1.7,23.5l-4.9,3.7l-11.6-2.2
		l-4.3-5.5l0.9-12.2l7.3,1.4l-0.6,9.1l1.4,1.8l3.1,0.6l1.6-1.3l1.3-17.1l-1.4-1.8l-7.2-1.4l-4.3-5.5l1.7-22.7l4.9-3.7l11.3,2.1
		l4.3,5.5l-1,12.3l-7.3-1.4L240.4,322.2z"/>
	
		<linearGradient id="SVGID_32_" gradientUnits="userSpaceOnUse" x1="253.0284" y1="81.6303" x2="277.4207" y2="81.6303" gradientTransform="matrix(1 0 0 -1 0 428.7606)">
		<stop  offset="5.338253e-04" style="stop-color:#000300;stop-opacity:0.5"/>
		<stop  offset="0.9989" style="stop-color:#000000;stop-opacity:0.5"/>
	</linearGradient>
	<path class="st38" d="M261.5,343.5l7.8,0.6l0.9-26l7.3,0.6l-1.9,58.7l-7.3-0.6l0.9-26.1l-7.8-0.6l-0.9,26.1l-7.3-0.6l1.9-58.7
		l7.3,0.6L261.5,343.5z"/>
	
		<linearGradient id="SVGID_33_" gradientUnits="userSpaceOnUse" x1="284.4619" y1="80.5302" x2="306.8304" y2="80.5302" gradientTransform="matrix(1 0 0 -1 0 428.7606)">
		<stop  offset="5.338253e-04" style="stop-color:#000300;stop-opacity:0.5"/>
		<stop  offset="0.9989" style="stop-color:#000000;stop-opacity:0.5"/>
	</linearGradient>
	<path class="st39" d="M306.9,372.8l-4.6,4.7l-12.9,0.2l-4.7-4.5l-0.2-49.5l4.6-4.7l12.9-0.2l4.7,4.5L306.9,372.8z M293.4,325.2
		l-1.5,1.6l0.2,42.9l1.6,1.5l4.3-0.1l1.5-1.6l-0.2-42.9l-1.6-1.5L293.4,325.2z"/>
	
		<linearGradient id="SVGID_34_" gradientUnits="userSpaceOnUse" x1="310.762" y1="84.2303" x2="354.0078" y2="84.2303" gradientTransform="matrix(1 0 0 -1 0 428.7606)">
		<stop  offset="5.338253e-04" style="stop-color:#000300;stop-opacity:0.5"/>
		<stop  offset="0.9989" style="stop-color:#000000;stop-opacity:0.5"/>
	</linearGradient>
	<path class="st40" d="M339.9,373.9l-6.8-48.7l-1.2,49.8l-10.3,1.5l-10.8-57.4l7.7-1.2l7.2,49.9l2.3-51.3l9.3-1.4l8,49.8l1.5-51.2
		l7.2-1.1l-4.2,59.5L339.9,373.9z"/>
</g>
<g>
	<path class="st17" d="M238.3,321.4l-1.4-1.8l-2.7-0.5l-1.6,1.3l-1.2,16.4l1.4,1.8l7.2,1.4l4.3,5.5l-1.7,23.5l-4.9,3.7l-11.6-2.2
		l-4.3-5.5l0.9-12.2l7.3,1.4l-0.6,9.1l1.4,1.8l3.1,0.6l1.6-1.3l1.3-17.1l-1.4-1.8l-7.2-1.4l-4.3-5.5l1.7-22.7l4.9-3.7l11.3,2.1
		l4.3,5.5l-1,12.3l-7.3-1.4L238.3,321.4z"/>
	<path class="st17" d="M259.4,342.6l7.8,0.6l0.9-26l7.3,0.6l-1.9,58.7l-7.3-0.6l0.9-26.1l-7.8-0.6l-0.9,26.1l-7.3-0.6L253,316
		l7.3,0.6L259.4,342.6z"/>
	<path class="st17" d="M304.7,371.9l-4.6,4.7l-12.9,0.2l-4.7-4.5l-0.2-49.5l4.6-4.7l12.9-0.2l4.7,4.5L304.7,371.9z M291.3,324.3
		l-1.5,1.6l0.2,42.9l1.6,1.5l4.3-0.1l1.5-1.6l-0.2-42.9l-1.6-1.5L291.3,324.3z"/>
	<path class="st17" d="M337.7,373l-6.8-48.7l-1.2,49.8l-10.3,1.5l-10.7-57.4l7.7-1.2l7.2,49.9l2.3-51.3l9.3-1.4l8,49.8l1.5-51.2
		l7.2-1.1l-4.2,59.5L337.7,373z"/>
</g>
</svg>
