<?xml version="1.0" encoding="utf-8"?>
<!-- Generator: Adobe Illustrator 25.0.1, SVG Export Plug-In . SVG Version: 6.00 Build 0)  -->
<svg version="1.1" id="Layer_1" xmlns="http://www.w3.org/2000/svg" xmlns:xlink="http://www.w3.org/1999/xlink" x="0px" y="0px"
	 viewBox="0 0 612 792" style="enable-background:new 0 0 612 792;" xml:space="preserve">
<style type="text/css">
	.st0{fill:none;stroke:url(#SVGID_1_);stroke-width:11;stroke-miterlimit:10;}
	.st1{fill:url(#SVGID_2_);}
	.st2{fill:#FAD92F;}
	.st3{fill:#1A4203;}
	.st4{fill:url(#SVGID_3_);}
	.st5{fill:#1A420D;}
	.st6{fill:#896B31;}
	.st7{fill:none;stroke:url(#SVGID_4_);stroke-width:11;stroke-miterlimit:10;}
	.st8{fill:#DBB36B;stroke:#9B2927;stroke-width:4;stroke-miterlimit:10;}
	.st9{fill:url(#SVGID_5_);}
	.st10{fill:url(#SVGID_6_);}
	.st11{fill:url(#SVGID_7_);}
	.st12{fill:url(#SVGID_8_);}
	.st13{fill:url(#SVGID_9_);}
	.st14{fill:url(#SVGID_10_);}
	.st15{fill:url(#SVGID_11_);}
	.st16{fill:url(#SVGID_12_);}
	.st17{fill:#9B2927;}
	.st18{fill:url(#SVGID_13_);}
	.st19{fill:url(#SVGID_14_);}
	.st20{fill:url(#SVGID_15_);}
	.st21{fill:#167000;}
	.st22{fill:url(#SVGID_16_);}
	.st23{fill:url(#SVGID_17_);}
	.st24{fill:url(#SVGID_18_);}
	.st25{fill:url(#SVGID_19_);}
	.st26{fill:url(#SVGID_20_);}
	.st27{fill:url(#SVGID_21_);}
	.st28{fill:url(#SVGID_22_);}
	.st29{fill:url(#SVGID_23_);}
	.st30{fill:url(#SVGID_24_);}
	.st31{fill:url(#SVGID_25_);}
	.st32{fill:url(#SVGID_26_);}
	.st33{fill:url(#SVGID_27_);}
	.st34{fill:url(#SVGID_28_);}
	.st35{fill:url(#SVGID_29_);}
	.st36{fill:url(#SVGID_30_);}
	.st37{fill:url(#SVGID_31_);}
	.st38{fill:url(#SVGID_32_);}
	.st39{fill:url(#SVGID_33_);}
	.st40{fill:url(#SVGID_34_);}
</style>
<linearGradient id="SVGID_1_" gradientUnits="userSpaceOnUse" x1="101.0377" y1="398.2013" x2="512.0771" y2="398.2013">
	<stop  offset="5.338253e-04" style="stop-color:#000300;stop-opacity:0.5"/>
	<stop  offset="0.9989" style="stop-color:#000000;stop-opacity:0.5"/>
</linearGradient>
<ellipse class="st0" cx="306.6" cy="398.2" rx="200" ry="198.8"/>
<g>
	
		<linearGradient id="SVGID_2_" gradientUnits="userSpaceOnUse" x1="483.1819" y1="725.1266" x2="592" y2="725.1266" gradientTransform="matrix(1 0 0 1 0 -288)">
		<stop  offset="0" style="stop-color:#297413"/>
		<stop  offset="0.2641" style="stop-color:#23781A"/>
		<stop  offset="0.6454" style="stop-color:#14842D"/>
		<stop  offset="1" style="stop-color:#009245"/>
	</linearGradient>
	<path class="st1" d="M592,493.5H483.2l60.2-44.6v-68.2h39c4.3,0,7.1,5.9,5,10.8l-19.7,45.7L592,493.5z"/>
	<polygon class="st2" points="589.5,487.8 492.1,487.6 492.2,482.3 587.1,482.4 	"/>
	<polygon class="st3" points="483.2,493.5 483.2,473.3 510.5,473.3 	"/>
	<path class="st2" d="M536.3,385.9h45.4c0,0,5.5,0.3,5.8,4.8c-0.2,0.5-1.2,2.9-1.2,2.9s-0.9-2.5-4.6-2.5h-45.4L536.3,385.9z"/>
</g>
<g>
	
		<linearGradient id="SVGID_3_" gradientUnits="userSpaceOnUse" x1="18.2864" y1="725.0633" x2="127.0005" y2="725.0633" gradientTransform="matrix(1 0 0 1 0 -288)">
		<stop  offset="0" style="stop-color:#009245"/>
		<stop  offset="0.3546" style="stop-color:#14842D"/>
		<stop  offset="0.7359" style="stop-color:#23781A"/>
		<stop  offset="1" style="stop-color:#297413"/>
	</linearGradient>
	<path class="st4" d="M18.3,493.5H127l-59.7-44.3v-68.6H30.6c-5.5,0-8.9,7.6-6.3,13.7l18.4,42.8L18.3,493.5z"/>
	<polygon class="st2" points="21.3,486.7 118.7,486.4 118.6,481.1 23.6,481.2 	"/>
	<polygon class="st5" points="127.1,493.5 127.1,473.3 99.8,473.3 	"/>
	<path class="st2" d="M74.2,385.9H28.8c0,0-5.2,0.3-5.4,4.8c0.2,2,0.7,3.2,0.7,3.2s1-2.7,4.7-2.7h45.4V385.9z"/>
</g>
<g>
	<ellipse class="st6" cx="304.1" cy="393.4" rx="202" ry="204"/>
	<linearGradient id="SVGID_4_" gradientUnits="userSpaceOnUse" x1="125.327" y1="397.4547" x2="488.1073" y2="397.4547">
		<stop  offset="5.338253e-04" style="stop-color:#000300;stop-opacity:0.5"/>
		<stop  offset="0.9989" style="stop-color:#000000;stop-opacity:0.5"/>
	</linearGradient>
	<ellipse class="st7" cx="306.7" cy="397.5" rx="175.9" ry="174.3"/>
	<ellipse class="st8" cx="304.1" cy="394.6" rx="179.6" ry="177.8"/>
</g>
<g>
	<g>
		<linearGradient id="SVGID_5_" gradientUnits="userSpaceOnUse" x1="162.8004" y1="318.2239" x2="214.5675" y2="318.2239">
			<stop  offset="5.338253e-04" style="stop-color:#000300;stop-opacity:0.5"/>
			<stop  offset="0.9989" style="stop-color:#000000;stop-opacity:0.5"/>
		</linearGradient>
		<path class="st9" d="M162.8,296.3c7-3.8,10.7-5.8,17.7-9.9c2.9,0.4,4.3,0.7,7.1,1.3c4.9,8.6,7.2,13,12,22.2
			c-0.9,2.4-1.4,3.7-2.2,6.1c5.9,7.4,11.6,15,17.1,22.6c-3,1.5-4.5,2.3-7.5,3.8c-5.4-7.5-11-14.8-16.8-22.1
			c-1.3,0.6-1.9,1.1-3.3,1.7c4.2,8,8.2,16.2,12.1,24.3c-3.1,1.5-4.6,2.2-7.6,3.7C182.7,331.9,173.2,314,162.8,296.3z M190.6,311.3
			c-3.6-6.9-5.4-10.2-9.1-16.6c-1-0.2-1.4-0.3-2.3-0.4c-2.2,1.3-3.4,1.9-5.5,3.1c4.3,7.4,6.4,11.2,10.7,19.1c2.2-1.2,3.3-1.7,5.5-3
			C190.1,312.6,190.3,312.2,190.6,311.3z"/>
		<linearGradient id="SVGID_6_" gradientUnits="userSpaceOnUse" x1="192.9446" y1="299.9262" x2="242.5814" y2="299.9262">
			<stop  offset="5.338253e-04" style="stop-color:#000300;stop-opacity:0.5"/>
			<stop  offset="0.9989" style="stop-color:#000000;stop-opacity:0.5"/>
		</linearGradient>
		<path class="st10" d="M239.6,329.5c-5.4,2.5-8.2,3.8-13.6,6.3c-2.9-1.1-4.4-1.6-7.2-2.7c-8.3-18.7-16.9-37.3-25.8-55.7
			c3.2-1.8,4.8-2.7,8.1-4.5c8.4,17.6,16.4,35.3,24.3,53.1c1,0.3,1.5,0.5,2.4,0.8c1.7-0.7,2.4-1.2,4.2-2c0.4-1,0.5-1.5,1-2.5
			c-7.9-18-15.9-36-24.3-53.7c3.2-1.8,4.9-2.7,8.1-4.5c8.8,19.2,17.5,38.6,25.9,58.1C241.4,325,240.8,326.6,239.6,329.5z"/>
		<linearGradient id="SVGID_7_" gradientUnits="userSpaceOnUse" x1="231.2906" y1="288.239" x2="272.1931" y2="288.239">
			<stop  offset="5.338253e-04" style="stop-color:#000300;stop-opacity:0.5"/>
			<stop  offset="0.9989" style="stop-color:#000000;stop-opacity:0.5"/>
		</linearGradient>
		<path class="st11" d="M258.2,254.1c4.7,19.9,9.3,39.7,14,59.5c-1.7,2.9-2.4,4.2-4.2,7.1c-8.1,2.1-12.1,3.3-20.2,5.4
			c-5.4-23-10.9-45.9-16.5-68.9c8.1-2.9,12.1-4.2,20.2-7C254.2,251.8,255.6,252.5,258.2,254.1z M262.5,312.1
			c-3.9-17.1-8-34.2-12-51.3c-0.9-0.5-1.4-0.7-2.2-1.3c-2.7,0.8-3.9,1.3-6.6,2.2c4.4,18.2,8.6,36.4,12.9,54.5
			c2.7-0.7,3.9-1.1,6.6-1.8C261.8,313.5,262,312.9,262.5,312.1z"/>
		<linearGradient id="SVGID_8_" gradientUnits="userSpaceOnUse" x1="270.8083" y1="280.5709" x2="301.9111" y2="280.5709">
			<stop  offset="5.338253e-04" style="stop-color:#000300;stop-opacity:0.5"/>
			<stop  offset="0.9989" style="stop-color:#000000;stop-opacity:0.5"/>
		</linearGradient>
		<path class="st12" d="M270.8,251.3c2-2.6,3.1-3.9,5.1-6.6c5.9-0.8,8.8-1.2,14.7-1.9c2.4,2.1,3.7,3.1,6.2,5.2
			c0.5,6.2,0.7,9.4,1.3,15.7c-3.6,0.3-5.4,0.5-9.1,1c-0.4-4.7-0.6-7-1-11.5c-0.9-0.7-1.3-1.1-2-1.7c-1.7,0.2-2.6,0.3-4.3,0.5
			c-0.6,0.8-1.1,1.3-1.7,2.2c1.5,18,3.1,35.9,4.6,53.8c0.9,0.7,1.2,1.1,2,1.8c1.7-0.2,2.6-0.2,4.2-0.4c0.6-0.8,1.1-1.3,1.7-2.1
			c-0.6-8-1.1-12.2-1.7-20.2c-1.8,0.2-2.7,0.3-4.5,0.5c-0.3-3.4-0.4-5-0.7-8.4c5.4-0.6,8.1-0.8,13.5-1.4c1,10.9,1.8,21.8,2.8,32.7
			c-2,2.5-3.1,3.8-5.1,6.3c-5.9,0.5-8.8,0.8-14.7,1.5c-2.4-2.1-3.6-3.2-6.1-5.2C274.4,292.4,272.6,271.9,270.8,251.3z"/>
		<linearGradient id="SVGID_9_" gradientUnits="userSpaceOnUse" x1="310.113" y1="280.3065" x2="362.4127" y2="280.3065">
			<stop  offset="5.338253e-04" style="stop-color:#000300;stop-opacity:0.5"/>
			<stop  offset="0.9989" style="stop-color:#000000;stop-opacity:0.5"/>
		</linearGradient>
		<path class="st13" d="M334.3,318.3c0.4-20.8,0.7-41.6,1.2-62.4c-3.6,20.4-7.2,40.8-10.8,61.2c-5-0.5-7.5-0.8-12.5-1.4
			c-0.7-25-1.4-49.9-2.1-74.9c3.7,0.4,5.6,0.6,9.4,1.1c-0.2,21.5-0.5,42.9-0.7,64.4c4-20.9,8.2-41.9,12.4-62.8
			c4.5,0.6,6.7,1,11.2,1.7c0,21.4,0,42.6,0.1,64c3.8-20.6,7.6-41.4,11.4-62c3.5,0.6,5.2,1,8.6,1.6c-5.4,23.6-10.8,47.3-16.1,70.9
			C341.5,319.2,339.2,318.9,334.3,318.3z"/>
		<linearGradient id="SVGID_10_" gradientUnits="userSpaceOnUse" x1="356.2347" y1="289.7197" x2="383.077" y2="289.7197">
			<stop  offset="5.338253e-04" style="stop-color:#000300;stop-opacity:0.5"/>
			<stop  offset="0.9989" style="stop-color:#000000;stop-opacity:0.5"/>
		</linearGradient>
		<path class="st14" d="M374.6,254c3.4,1.3,5.1,1.9,8.5,3.3c-6.2,22.6-12.2,45.4-18.3,68.1c-3.4-1.1-5.1-1.6-8.5-2.5
			C362.3,299.9,368.4,277,374.6,254z"/>
		<linearGradient id="SVGID_11_" gradientUnits="userSpaceOnUse" x1="370.8275" y1="299.5032" x2="415.7776" y2="299.5032">
			<stop  offset="5.338253e-04" style="stop-color:#000300;stop-opacity:0.5"/>
			<stop  offset="0.9989" style="stop-color:#000000;stop-opacity:0.5"/>
		</linearGradient>
		<path class="st15" d="M393,267.1c2.9-0.8,4.4-1.3,7.2-2.1c5,2.7,7.6,4,12.6,6.8c1.2,3,1.8,4.4,3,7.4c-2.3,5.3-3.5,8-5.9,13.4
			c-3.3-1.6-4.9-2.4-8.2-4.1c1.8-4.2,2.8-6.3,4.6-10.5c-0.4-1-0.6-1.5-1-2.4c-1.2-0.6-1.8-1-3.1-1.6c-1,0.3-1.4,0.4-2.3,0.7
			c-6.6,15.4-13,30.9-19.4,46.4c0.4,1,0.6,1.5,1.1,2.4c1.3,0.5,1.8,0.8,3.1,1.4c1-0.4,1.5-0.5,2.4-1c1.8-4.4,2.7-6.6,4.5-11
			c3.3,1.5,4.9,2.2,8.2,3.7c-2.3,5.7-3.6,8.6-6,14.4c-2.9,1.2-4.4,1.7-7.2,2.9c-5-2.2-7.6-3.3-12.7-5.5c-1.2-3-1.8-4.4-3.1-7.5
			C378,303.1,385.3,285.1,393,267.1z"/>
		<linearGradient id="SVGID_12_" gradientUnits="userSpaceOnUse" x1="395.6459" y1="314.998" x2="448.9043" y2="314.998">
			<stop  offset="5.338253e-04" style="stop-color:#000300;stop-opacity:0.5"/>
			<stop  offset="0.9989" style="stop-color:#000000;stop-opacity:0.5"/>
		</linearGradient>
		<path class="st16" d="M410.1,327.2c-2.6,5.6-3.8,8.4-6.5,14.1c-3.2-1.4-4.8-2-8-3.4c8.6-19,17.6-37.9,27.5-56.6
			c3.2,1.6,4.9,2.4,8.1,4c-5.1,9.5-10,19-14.8,28.7c7.9-8.2,16-16.2,24.4-24c3.2,1.6,4.9,2.3,8.1,3.9c-7.3,6.1-14.4,12.6-21.1,19.1
			c-2.1,11.8-4.2,23.7-6.1,35.6c-3.3-1.3-5-2-8.3-3.4c1.7-8.8,3.5-17.6,5.3-26.2C415.4,322.2,413.5,323.8,410.1,327.2z"/>
	</g>
</g>
<g>
	<g>
		<path class="st17" d="M160.1,296.4c7-3.8,10.7-5.8,17.7-9.9c2.9,0.4,4.3,0.7,7.1,1.3c4.9,8.6,7.2,13,12,22.2
			c-0.9,2.4-1.4,3.7-2.2,6.1c5.9,7.4,11.6,15,17.1,22.6c-3,1.5-4.5,2.3-7.5,3.8c-5.4-7.5-11-14.8-16.8-22.1
			c-1.3,0.6-1.9,1.1-3.3,1.7c4.2,8,8.2,16.2,12.1,24.3c-3.1,1.5-4.6,2.2-7.6,3.7C180,332,170.5,314.1,160.1,296.4z M187.9,311.5
			c-3.6-6.9-5.4-10.2-9.1-16.6c-1-0.2-1.4-0.3-2.3-0.4c-2.2,1.3-3.4,1.9-5.5,3.1c4.3,7.4,6.4,11.2,10.7,19.1c2.2-1.2,3.3-1.7,5.5-3
			C187.3,312.7,187.6,312.3,187.9,311.5z"/>
		<path class="st17" d="M236.9,329.6c-5.4,2.5-8.2,3.8-13.6,6.3c-2.9-1.1-4.4-1.6-7.2-2.7c-8.3-18.7-16.9-37.3-25.8-55.7
			c3.2-1.8,4.8-2.7,8.1-4.5c8.4,17.6,16.4,35.3,24.3,53.1c1,0.3,1.5,0.5,2.4,0.8c1.7-0.7,2.4-1.2,4.2-2c0.4-1,0.5-1.5,1-2.5
			c-7.9-18-15.9-36-24.3-53.7c3.2-1.8,4.9-2.7,8.1-4.5c8.8,19.2,17.5,38.6,25.9,58.1C238.7,325.1,238,326.7,236.9,329.6z"/>
		<path class="st17" d="M255.5,254.2c4.7,19.9,9.3,39.7,14,59.5c-1.7,2.9-2.4,4.2-4.2,7.1c-8.1,2.1-12.1,3.3-20.2,5.4
			c-5.4-23-10.9-45.9-16.5-68.9c8.1-2.9,12.1-4.2,20.2-7C251.5,251.9,252.9,252.6,255.5,254.2z M259.8,312.2
			c-3.9-17.1-8-34.2-12-51.3c-0.9-0.5-1.4-0.7-2.2-1.3c-2.7,0.8-3.9,1.3-6.6,2.2c4.4,18.2,8.6,36.4,12.9,54.5
			c2.7-0.7,3.9-1.1,6.6-1.8C259,313.6,259.2,313,259.8,312.2z"/>
		<path class="st17" d="M268.1,251.4c2-2.6,3.1-3.9,5.1-6.6c5.9-0.8,8.8-1.2,14.7-1.9c2.4,2.1,3.7,3.1,6.2,5.2
			c0.5,6.2,0.7,9.4,1.3,15.7c-3.6,0.3-5.4,0.5-9.1,1c-0.4-4.7-0.6-7-1-11.5c-0.9-0.7-1.3-1.1-2-1.7c-1.7,0.2-2.6,0.3-4.3,0.5
			c-0.6,0.8-1.1,1.3-1.7,2.2c1.5,18,3.1,35.9,4.6,53.8c0.9,0.7,1.2,1.1,2,1.8c1.7-0.2,2.6-0.2,4.2-0.4c0.6-0.8,1.1-1.3,1.7-2.1
			c-0.6-8-1.1-12.2-1.7-20.2c-1.8,0.2-2.7,0.3-4.5,0.5c-0.3-3.4-0.4-5-0.7-8.4c5.4-0.6,8.1-0.8,13.5-1.4c1,10.9,1.8,21.8,2.8,32.7
			c-2,2.5-3.1,3.8-5.1,6.3c-5.9,0.5-8.8,0.8-14.7,1.5c-2.4-2.1-3.6-3.2-6.1-5.2C271.7,292.5,269.9,272,268.1,251.4z"/>
		<path class="st17" d="M331.6,318.4c0.4-20.8,0.7-41.6,1.2-62.4c-3.6,20.4-7.2,40.8-10.8,61.2c-5-0.5-7.5-0.8-12.5-1.4
			c-0.7-25-1.4-49.9-2.1-74.9c3.7,0.4,5.6,0.6,9.4,1.1c-0.2,21.5-0.5,42.9-0.7,64.4c4-20.9,8.2-41.9,12.4-62.8
			c4.5,0.6,6.7,1,11.2,1.7c0,21.4,0,42.6,0.1,64c3.8-20.6,7.6-41.4,11.4-62c3.5,0.6,5.2,1,8.6,1.6c-5.4,23.6-10.8,47.3-16.1,70.9
			C338.8,319.3,336.5,319,331.6,318.4z"/>
		<path class="st17" d="M371.8,254.1c3.4,1.3,5.1,1.9,8.5,3.3c-6.2,22.6-12.2,45.4-18.3,68.1c-3.4-1.1-5.1-1.6-8.5-2.5
			C359.6,300,365.7,277.1,371.8,254.1z"/>
		<path class="st17" d="M390.3,267.2c2.9-0.8,4.4-1.3,7.2-2.1c5,2.7,7.6,4,12.6,6.8c1.2,3,1.8,4.4,3,7.4c-2.3,5.3-3.5,8-5.9,13.4
			c-3.3-1.6-4.9-2.4-8.2-4.1c1.8-4.2,2.8-6.3,4.6-10.5c-0.4-1-0.6-1.5-1-2.4c-1.2-0.6-1.8-1-3.1-1.6c-1,0.3-1.4,0.4-2.3,0.7
			c-6.6,15.4-13,30.9-19.4,46.4c0.4,1,0.6,1.5,1.1,2.4c1.3,0.5,1.8,0.8,3.1,1.4c1-0.4,1.5-0.5,2.4-1c1.8-4.4,2.7-6.6,4.5-11
			c3.3,1.5,4.9,2.2,8.2,3.7c-2.3,5.7-3.6,8.6-6,14.4c-2.9,1.2-4.4,1.7-7.2,2.9c-5-2.2-7.6-3.3-12.7-5.5c-1.2-3-1.8-4.4-3.1-7.5
			C375.2,303.2,382.6,285.2,390.3,267.2z"/>
		<path class="st17" d="M407.4,327.3c-2.6,5.6-3.8,8.4-6.5,14.1c-3.2-1.4-4.8-2-8-3.4c8.6-19,17.6-37.9,27.5-56.6
			c3.2,1.6,4.9,2.4,8.1,4c-5.1,9.5-10,19-14.8,28.7c7.9-8.2,16-16.2,24.4-24c3.2,1.6,4.9,2.3,8.1,3.9c-7.3,6.1-14.4,12.6-21.1,19.1
			c-2.1,11.8-4.2,23.7-6.1,35.6c-3.3-1.3-5-2-8.3-3.4c1.7-8.8,3.5-17.6,5.3-26.2C412.6,322.3,410.8,323.9,407.4,327.3z"/>
	</g>
</g>
<linearGradient id="SVGID_13_" gradientUnits="userSpaceOnUse" x1="167.4945" y1="360.5527" x2="443.49" y2="360.5527">
	<stop  offset="5.338253e-04" style="stop-color:#000300;stop-opacity:0.5"/>
	<stop  offset="0.9989" style="stop-color:#000000;stop-opacity:0.5"/>
</linearGradient>
<path class="st18" d="M305.7,334.6c-11.6,12.3-1.8,21.3-15.8,19.7c-4.3-0.7-0.4-9.2-7.2-14.5c-6.8-5.2-24.1-1.8-10.1,2.6
	c14,4.4,9.3,12.8,9.3,12.8c0.2,11.7,22.6,4.4,9.6,11c-26.5,18.6-63.8,7.7-51.7-13c17.8-10,14,9.4,14,9.4c-15.3-4.7,3.5,7.4,3.5,7.4
	c27.2,0,6.4-21,6.4-21c-30.7-27.5-35.9,9.8-35.9,9.8c-17.8-13.6-46.1,8.2-46.1,8.2c-21.7-0.8-13.6,5.1-6.8,6.9
	c6.8,1.9,16.7-9.7,18.1,0c1.4,9.7,16,12.5,16,12.5c30.6-5.1,3.2-13.3,3.2-13.3c-9.5,0-3.8,3-3.8,3c6.7,0,3.7,3.7,3.7,3.7
	c-12,0.8-10.5-5.6-10.5-5.6c8.5-38.4,55.5,39.6,96.3-4.4l7.8-0.4l7.8,0.4c40.8,44,87.7-34,96.3,4.4c0,0,1.6,6.6-10.5,5.6
	c0,0-3-3.7,3.7-3.7c0,0,5.6-3-3.8-3c0,0-27.3,8.2,3.2,13.3c0,0,14.6-2.6,16-12.5c1.4-9.8,11.3,1.9,18.1,0c6.8-1.9,14.9-7.8-6.8-6.9
	c0,0-28.3-21.9-46.1-8.2c0,0-5.2-37.3-35.9-9.8c0,0-20.7,21,6.4,21c0,0,18.9-12,3.5-7.4c0,0-3.8-19.5,14-9.4
	c12.1,20.7-25,31.5-51.7,13c-13-6.5,9.4,0.8,9.6-11c0,0-4.7-8.4,9.3-12.8c14-4.4-3.3-7.9-10.1-2.6c-6.8,5.2-2.9,13.7-7.2,14.5
	C307.5,355.9,317.3,346.9,305.7,334.6"/>
<linearGradient id="SVGID_14_" gradientUnits="userSpaceOnUse" x1="156.3485" y1="459.9735" x2="456.7663" y2="459.9735">
	<stop  offset="5.338253e-04" style="stop-color:#000300;stop-opacity:0.5"/>
	<stop  offset="0.9989" style="stop-color:#000000;stop-opacity:0.5"/>
</linearGradient>
<path class="st19" d="M306.8,434.1c-12.6,12.3-2,21.3-17.2,19.7c-4.6-0.7-0.5-9.2-7.9-14.5c-7.4-5.2-26.2-1.8-11,2.6
	c15.2,4.4,10.1,12.8,10.1,12.8c0.2,11.7,24.6,4.4,10.4,11c-28.9,18.6-69.4,7.7-56.2-13c19.4-10,15.2,9.4,15.2,9.4
	c-16.7-4.7,3.8,7.4,3.8,7.4c29.6,0,7-21,7-21c-33.4-27.5-39.1,9.8-39.1,9.8c-19.4-13.6-50.2,8.2-50.2,8.2
	c-23.7-0.8-14.8,5.1-7.4,6.9c7.4,1.9,18.2-9.7,19.7,0s17.4,12.5,17.4,12.5c33.3-5.1,3.5-13.3,3.5-13.3c-10.3,0-4.2,3-4.2,3
	c7.3,0,4.1,3.7,4.1,3.7c-13.1,0.8-11.5-5.6-11.5-5.6c9.3-38.4,60.4,39.6,104.8-4.4l8.5-0.4l8.5,0.4c44.4,44,95.4-34,104.8,4.4
	c0,0,1.7,6.6-11.5,5.6c0,0-3.2-3.7,4.1-3.7c0,0,6.1-3-4.2-3c0,0-29.7,8.2,3.5,13.3c0,0,15.9-2.6,17.4-12.5s12.3,1.9,19.7,0
	s16.2-7.8-7.4-6.9c0,0-30.8-21.9-50.2-8.2c0,0-5.7-37.3-39.1-9.8c0,0-22.5,21,7,21c0,0,20.5-12,3.8-7.4c0,0-4.2-19.5,15.2-9.4
	c13.2,20.7-27.2,31.5-56.2,13c-14.1-6.5,10.2,0.8,10.4-11c0,0-5.1-8.4,10.1-12.8c15.2-4.4-3.6-7.9-11-2.6
	c-7.4,5.2-3.1,13.7-7.9,14.5C308.8,455.3,319.4,446.3,306.8,434.1"/>
<path class="st17" d="M305,432.6c-12.6,12.3-2,21.3-17.2,19.7c-4.6-0.7-0.5-9.2-7.9-14.5c-7.4-5.2-26.2-1.8-11,2.6
	c15.2,4.4,10.1,12.8,10.1,12.8c0.2,11.7,24.6,4.4,10.4,11c-28.9,18.6-69.4,7.7-56.2-13c19.4-10,15.2,9.4,15.2,9.4
	c-16.7-4.7,3.8,7.4,3.8,7.4c29.6,0,7-21,7-21c-33.4-27.5-39.1,9.8-39.1,9.8c-19.4-13.6-50.2,8.2-50.2,8.2
	c-23.7-0.8-14.8,5.1-7.4,6.9c7.4,1.9,18.2-9.7,19.7,0c1.5,9.7,17.4,12.5,17.4,12.5c33.3-5.1,3.5-13.3,3.5-13.3c-10.3,0-4.2,3-4.2,3
	c7.3,0,4.1,3.7,4.1,3.7c-13.1,0.8-11.5-5.6-11.5-5.6c9.3-38.4,60.4,39.6,104.8-4.4l8.5-0.4l8.5,0.4c44.4,44,95.4-34,104.8,4.4
	c0,0,1.7,6.6-11.5,5.6c0,0-3.2-3.7,4.1-3.7c0,0,6.1-3-4.2-3c0,0-29.7,8.2,3.5,13.3c0,0,15.9-2.6,17.4-12.5c1.5-9.8,12.3,1.9,19.7,0
	c7.4-1.9,16.2-7.8-7.4-6.9c0,0-30.8-21.9-50.2-8.2c0,0-5.7-37.3-39.1-9.8c0,0-22.5,21,7,21c0,0,20.5-12,3.8-7.4
	c0,0-4.2-19.5,15.2-9.4c13.2,20.7-27.2,31.5-56.2,13c-14.1-6.5,10.2,0.8,10.4-11c0,0-5.1-8.4,10.1-12.8c15.2-4.4-3.6-7.9-11-2.6
	c-7.4,5.2-3.1,13.7-7.9,14.5C307,453.8,317.7,444.8,305,432.6"/>
<path class="st17" d="M304.5,335.5c-11.6,12.3-1.8,21.3-15.8,19.7c-4.3-0.7-0.4-9.2-7.2-14.5c-6.8-5.2-24.1-1.8-10.1,2.6
	c14,4.4,9.3,12.8,9.3,12.8c0.2,11.7,22.6,4.4,9.6,11c-26.5,18.6-63.8,7.7-51.7-13c17.8-10,14,9.4,14,9.4c-15.3-4.7,3.5,7.4,3.5,7.4
	c27.2,0,6.4-21,6.4-21c-30.7-27.5-35.9,9.8-35.9,9.8c-17.8-13.6-46.1,8.2-46.1,8.2c-21.7-0.8-13.6,5.1-6.8,6.9
	c6.8,1.9,16.7-9.7,18.1,0s16,12.5,16,12.5c30.6-5.1,3.2-13.3,3.2-13.3c-9.5,0-3.8,3-3.8,3c6.7,0,3.7,3.7,3.7,3.7
	c-12,0.8-10.5-5.6-10.5-5.6c8.5-38.4,55.5,39.6,96.3-4.4l7.8-0.4l7.8,0.4c40.8,44,87.7-34,96.3,4.4c0,0,1.6,6.6-10.5,5.6
	c0,0-3-3.7,3.7-3.7c0,0,5.6-3-3.8-3c0,0-27.3,8.2,3.2,13.3c0,0,14.6-2.6,16-12.5s11.3,1.9,18.1,0c6.8-1.9,14.9-7.8-6.8-6.9
	c0,0-28.3-21.9-46.1-8.2c0,0-5.2-37.3-35.9-9.8c0,0-20.7,21,6.4,21c0,0,18.9-12,3.5-7.4c0,0-3.8-19.5,14-9.4
	c12.1,20.7-25,31.5-51.7,13c-13-6.5,9.4,0.8,9.6-11c0,0-4.7-8.4,9.3-12.8c14-4.4-3.3-7.9-10.1-2.6c-6.8,5.2-2.9,13.7-7.2,14.5
	C306.3,356.7,316.1,347.7,304.5,335.5"/>
<linearGradient id="SVGID_15_" gradientUnits="userSpaceOnUse" x1="304.894" y1="385.6474" x2="306.1053" y2="589.1547">
	<stop  offset="5.338253e-04" style="stop-color:#000300;stop-opacity:0.5"/>
	<stop  offset="0.9989" style="stop-color:#000000;stop-opacity:0.5"/>
</linearGradient>
<path class="st20" d="M73.4,396.2h463c3.1,0,5.6,2.5,5.6,5.4l2.2,68.6c0,3-0.9,10.8-7.9,10.8H71.6c-5.2-0.5-5.1-9.3-5.1-12.3
	l1.2-67.2C67.8,398.6,70.3,396.2,73.4,396.2z"/>
<path class="st21" d="M72.2,348.8h466.4c3.1,0,5.7,3.7,5.7,8.2v111.8c0,4.5-2.6,8.2-5.7,8.2H72.2c-3.1,0-5.7-3.7-5.7-8.2V357
	C66.5,352.4,69.1,348.8,72.2,348.8z"/>
<g>
	<linearGradient id="SVGID_16_" gradientUnits="userSpaceOnUse" x1="66.5221" y1="367.0185" x2="544.2709" y2="367.0185">
		<stop  offset="0" style="stop-color:#000300"/>
		<stop  offset="0.9989" style="stop-color:#000000;stop-opacity:0.5"/>
	</linearGradient>
	<path class="st22" d="M536.2,360.8H74.5c0,0-8,0.4-8,7.8v4.6c0,0,3.3-3.9,8-3.9h461.8c4.7,0,8,3.9,8,3.9v-4.6
		C544.2,361.1,536.2,360.8,536.2,360.8z"/>
	<linearGradient id="SVGID_17_" gradientUnits="userSpaceOnUse" x1="66.5221" y1="459.7106" x2="544.2709" y2="459.7106">
		<stop  offset="0" style="stop-color:#000300"/>
		<stop  offset="0.9989" style="stop-color:#000000;stop-opacity:0.5"/>
	</linearGradient>
	<path class="st23" d="M536.2,453.5H74.5c0,0-8,0.4-8,7.8v4.6c0,0,3.3-3.9,8-3.9h461.8c4.7,0,8,3.9,8,3.9v-4.6
		C544.2,454,536.2,453.5,536.2,453.5z"/>
</g>
<g>
	<path class="st2" d="M536.2,359.4H74.5c0,0-8,0.4-8,7.8v4.6c0,0,3.3-3.9,8-3.9h461.8c4.7,0,8,3.9,8,3.9v-4.6
		C544.2,359.7,536.2,359.4,536.2,359.4z"/>
	<path class="st2" d="M536.2,452.1H74.5c0,0-8,0.4-8,7.8v4.6c0,0,3.3-3.9,8-3.9h461.8c4.7,0,8,3.9,8,3.9v-4.6
		C544.2,452.5,536.2,452.1,536.2,452.1z"/>
</g>
<g>
	<linearGradient id="SVGID_18_" gradientUnits="userSpaceOnUse" x1="87.0025" y1="413.0802" x2="112.8282" y2="413.0802">
		<stop  offset="5.338253e-04" style="stop-color:#000300;stop-opacity:0.5"/>
		<stop  offset="0.9989" style="stop-color:#000000;stop-opacity:0.5"/>
	</linearGradient>
	<path class="st24" d="M103.4,389.8l-1.9-1.6h-3.3l-1.9,1.6v17.8l1.9,1.6h8.9l5.7,5.1v25.6l-5.7,5.1H92.7l-5.7-5.1v-13.3h9v9.9
		l1.9,1.6h3.7l1.9-1.6v-18.7l-1.9-1.6h-8.9L87,411v-24.7l5.7-5.1h13.9l5.7,5.1v13.3h-9L103.4,389.8L103.4,389.8z"/>
	<linearGradient id="SVGID_19_" gradientUnits="userSpaceOnUse" x1="115.5248" y1="413.155" x2="141.7654" y2="413.155">
		<stop  offset="5.338253e-04" style="stop-color:#000300;stop-opacity:0.5"/>
		<stop  offset="0.9989" style="stop-color:#000000;stop-opacity:0.5"/>
	</linearGradient>
	<path class="st25" d="M133.2,388.1v56.7h-9v-56.7h-8.6v-6.6h26.2v6.7h-8.6V388.1z"/>
	<linearGradient id="SVGID_20_" gradientUnits="userSpaceOnUse" x1="145.6029" y1="413.3045" x2="168.2133" y2="413.3045">
		<stop  offset="5.338253e-04" style="stop-color:#000300;stop-opacity:0.5"/>
		<stop  offset="0.9989" style="stop-color:#000000;stop-opacity:0.5"/>
	</linearGradient>
	<path class="st26" d="M145.7,381.5H168v6.9h-13.3v21.1h11.6v6.9h-11.6v21.8h13.5v6.9h-22.6L145.7,381.5L145.7,381.5z"/>
	<linearGradient id="SVGID_21_" gradientUnits="userSpaceOnUse" x1="170.91" y1="413.2297" x2="201.2992" y2="413.2297">
		<stop  offset="5.338253e-04" style="stop-color:#000300;stop-opacity:0.5"/>
		<stop  offset="0.9989" style="stop-color:#000000;stop-opacity:0.5"/>
	</linearGradient>
	<path class="st27" d="M181.7,428.5l-1.8,16.3h-9l8.5-63.2h13.1l8.8,63.4h-9.4l-1.8-16.3h-8.4V428.5z M185.8,389.8l-3.5,32h6.9
		L185.8,389.8z"/>
	<linearGradient id="SVGID_22_" gradientUnits="userSpaceOnUse" x1="205.2405" y1="413.2297" x2="245.2754" y2="413.2297">
		<stop  offset="5.338253e-04" style="stop-color:#000300;stop-opacity:0.5"/>
		<stop  offset="0.9989" style="stop-color:#000000;stop-opacity:0.5"/>
	</linearGradient>
	<path class="st28" d="M220.5,444.9l-7.1-49.6v49.6h-8.2v-63.4h13.2l6.7,51.3l6.7-51.3h13.4v63.4h-8.6v-49.8l-7.1,49.6L220.5,444.9
		L220.5,444.9z"/>
	<linearGradient id="SVGID_23_" gradientUnits="userSpaceOnUse" x1="266.019" y1="413.0802" x2="297.2379" y2="413.0802">
		<stop  offset="5.338253e-04" style="stop-color:#000300;stop-opacity:0.5"/>
		<stop  offset="0.9989" style="stop-color:#000000;stop-opacity:0.5"/>
	</linearGradient>
	<path class="st29" d="M292.6,415.5v24.4l-5.7,5.1h-15.1l-5.7-5.1v-22.7l5.7-5.1L266,407v-20.6l5.7-5.1H287l5.7,5.1v10.8h-9v-7.3
		l-1.9-1.6h-4.7l-1.9,1.6V407l1.9,1.6h20.1v6.9H292.6L292.6,415.5z M275,417.1v19.1l1.9,1.6h4.7l1.9-1.6v-20.9h-6.5L275,417.1z"/>
	<linearGradient id="SVGID_24_" gradientUnits="userSpaceOnUse" x1="315.9071" y1="413.155" x2="341.3179" y2="413.155">
		<stop  offset="5.338253e-04" style="stop-color:#000300;stop-opacity:0.5"/>
		<stop  offset="0.9989" style="stop-color:#000000;stop-opacity:0.5"/>
	</linearGradient>
	<path class="st30" d="M315.9,386.5l5.7-5.1h14l5.7,5.1v14.2h-9v-10.9l-1.9-1.6H327l-1.9,1.6v46.5l1.9,1.6h3.4l1.9-1.6v-10.8h9v14.4
		l-5.7,5.1h-14l-5.7-5.1V386.5z"/>
	<linearGradient id="SVGID_25_" gradientUnits="userSpaceOnUse" x1="346.0889" y1="413.155" x2="373.2628" y2="413.155">
		<stop  offset="5.338253e-04" style="stop-color:#000300;stop-opacity:0.5"/>
		<stop  offset="0.9989" style="stop-color:#000000;stop-opacity:0.5"/>
	</linearGradient>
	<path class="st31" d="M373.3,439.8l-5.7,5.1h-15.8l-5.7-5.1v-53.4l5.7-5.1h15.8l5.7,5.1V439.8z M357.2,388.3l-1.9,1.6v46.3l1.9,1.6
		h5.2l1.9-1.6v-46.3l-1.9-1.6H357.2z"/>
	<linearGradient id="SVGID_26_" gradientUnits="userSpaceOnUse" x1="379.071" y1="413.155" x2="405.519" y2="413.155">
		<stop  offset="5.338253e-04" style="stop-color:#000300;stop-opacity:0.5"/>
		<stop  offset="0.9989" style="stop-color:#000000;stop-opacity:0.5"/>
	</linearGradient>
	<path class="st32" d="M400,444.9h-15.2l-5.7-5.1v-58.5h9v54.9l1.9,1.6h4.7l1.9-1.6v-54.9h9v58.5L400,444.9z"/>
	<linearGradient id="SVGID_27_" gradientUnits="userSpaceOnUse" x1="411.8458" y1="413.2297" x2="440.2644" y2="413.2297">
		<stop  offset="5.338253e-04" style="stop-color:#000300;stop-opacity:0.5"/>
		<stop  offset="0.9989" style="stop-color:#000000;stop-opacity:0.5"/>
	</linearGradient>
	<path class="st33" d="M411.8,381.5h9.9l10.4,44v-44h8.2v63.4h-9.9L420,401.6v43.4h-8.2V381.5z"/>
	<linearGradient id="SVGID_28_" gradientUnits="userSpaceOnUse" x1="444.2056" y1="413.155" x2="470.4462" y2="413.155">
		<stop  offset="5.338253e-04" style="stop-color:#000300;stop-opacity:0.5"/>
		<stop  offset="0.9989" style="stop-color:#000000;stop-opacity:0.5"/>
	</linearGradient>
	<path class="st34" d="M461.8,388.1v56.7h-9v-56.7h-8.6v-6.6h26.2v6.7h-8.6V388.1z"/>
	<linearGradient id="SVGID_29_" gradientUnits="userSpaceOnUse" x1="474.4911" y1="413.3045" x2="501.8726" y2="413.3045">
		<stop  offset="5.338253e-04" style="stop-color:#000300;stop-opacity:0.5"/>
		<stop  offset="0.9989" style="stop-color:#000000;stop-opacity:0.5"/>
	</linearGradient>
	<path class="st35" d="M474.5,381.5h21l5.7,5.1v26.3l-5,4.5l5.7,27.7h-8.8l-5.6-27.1h-3.8v27.1h-9v-63.5H474.5z M492,409.6v-19.9
		l-1.9-1.6h-6.6v23.2h6.6L492,409.6z"/>
	<linearGradient id="SVGID_30_" gradientUnits="userSpaceOnUse" x1="504.2581" y1="413.2297" x2="535.1659" y2="413.2297">
		<stop  offset="5.338253e-04" style="stop-color:#000300;stop-opacity:0.5"/>
		<stop  offset="0.9989" style="stop-color:#000000;stop-opacity:0.5"/>
	</linearGradient>
	<path class="st36" d="M515.3,444.9v-20.8l-11-42.6h9.7l5.7,31.1l5.7-31.1h9.7l-11,42.6v20.8H515.3z"/>
</g>
<g>
	<path class="st2" d="M101.1,388.3l-1.9-1.6h-3.3l-1.9,1.6v17.8l1.9,1.6h8.9l5.7,5.1v25.6l-5.7,5.1H90.4l-5.7-5.1V425h9v9.9l1.9,1.6
		h3.7l1.9-1.6v-18.7l-1.9-1.6h-8.9l-5.7-5.1v-24.7l5.7-5.1h13.9l5.7,5.1v13.3h-9L101.1,388.3L101.1,388.3z"/>
	<path class="st2" d="M130.8,386.6v56.7h-9v-56.7h-8.6V380h26.2v6.7h-8.6V386.6z"/>
	<path class="st2" d="M143.4,380h22.3v6.9h-13.3V408H164v6.9h-11.6v21.8h13.5v6.9h-22.6L143.4,380L143.4,380z"/>
	<path class="st2" d="M179.4,427l-1.8,16.3h-9l8.5-63.2h13.1l8.8,63.4h-9.4l-1.8-16.3h-8.4V427z M183.5,388.3l-3.5,32h6.9
		L183.5,388.3z"/>
	<path class="st2" d="M218.2,443.4l-7.1-49.6v49.6h-8.2V380h13.2l6.7,51.3l6.7-51.3h13.4v63.4h-8.6v-49.8l-7.1,49.6L218.2,443.4
		L218.2,443.4z"/>
	<path class="st2" d="M290.2,414v24.4l-5.7,5.1h-15.1l-5.7-5.1v-22.7l5.7-5.1l-5.7-5.1v-20.6l5.7-5.1h15.2l5.7,5.1v10.8h-9v-7.3
		l-1.9-1.6h-4.7l-1.9,1.6v17.2l1.9,1.6h20.1v6.9H290.2L290.2,414z M272.7,415.6v19.1l1.9,1.6h4.7l1.9-1.6v-20.9h-6.5L272.7,415.6z"
		/>
	<path class="st2" d="M313.6,385l5.7-5.1h14l5.7,5.1v14.2h-9v-10.9l-1.9-1.6h-3.4l-1.9,1.6v46.5l1.9,1.6h3.4l1.9-1.6V424h9v14.4
		l-5.7,5.1h-14l-5.7-5.1V385z"/>
	<path class="st2" d="M370.9,438.3l-5.7,5.1h-15.8l-5.7-5.1V385l5.7-5.1h15.8l5.7,5.1V438.3z M354.9,386.8l-1.9,1.6v46.3l1.9,1.6
		h5.2l1.9-1.6v-46.3l-1.9-1.6H354.9z"/>
	<path class="st2" d="M397.7,443.4h-15.2l-5.7-5.1v-58.5h9v54.9l1.9,1.6h4.7l1.9-1.6v-54.9h9v58.5L397.7,443.4z"/>
	<path class="st2" d="M409.5,380h9.9l10.4,44v-44h8.2v63.4h-9.9l-10.4-43.4v43.4h-8.2V380z"/>
	<path class="st2" d="M459.5,386.6v56.7h-9v-56.7h-8.6V380h26.2v6.7h-8.6V386.6z"/>
	<path class="st2" d="M472.2,380h21l5.7,5.1v26.3l-5,4.5l5.7,27.7h-8.8l-5.6-27.1h-3.8v27.1h-9V380H472.2z M489.7,408.1v-19.9
		l-1.9-1.6h-6.6v23.2h6.6L489.7,408.1z"/>
	<path class="st2" d="M512.9,443.4v-20.8l-11-42.6h9.7l5.7,31.1l5.7-31.1h9.7l-11,42.6v20.8H512.9z"/>
</g>
<g>
	<linearGradient id="SVGID_31_" gradientUnits="userSpaceOnUse" x1="236.2873" y1="525.7911" x2="260.4666" y2="525.7911">
		<stop  offset="5.338253e-04" style="stop-color:#000300;stop-opacity:0.5"/>
		<stop  offset="0.9989" style="stop-color:#000000;stop-opacity:0.5"/>
	</linearGradient>
	<path class="st37" d="M252.7,504.8l-1.4-1.8l-2.7-0.5l-1.6,1.3l-1.2,16.4l1.4,1.8l7.2,1.4l4.3,5.5l-1.7,23.5l-4.9,3.7l-11.6-2.2
		l-4.3-5.5l0.9-12.2l7.3,1.4l-0.6,9.1l1.4,1.8l3.1,0.6l1.6-1.3l1.3-17.1l-1.4-1.8l-7.2-1.4l-4.3-5.5l1.7-22.7l4.9-3.7l11.3,2.1
		l4.3,5.5l-1,12.3l-7.3-1.4L252.7,504.8z"/>
	<linearGradient id="SVGID_32_" gradientUnits="userSpaceOnUse" x1="265.3664" y1="529.7575" x2="289.7587" y2="529.7575">
		<stop  offset="5.338253e-04" style="stop-color:#000300;stop-opacity:0.5"/>
		<stop  offset="0.9989" style="stop-color:#000000;stop-opacity:0.5"/>
	</linearGradient>
	<path class="st38" d="M273.8,526.1l7.8,0.6l0.9-26l7.3,0.6l-1.9,58.7l-7.3-0.6l0.9-26.1l-7.8-0.6l-0.9,26.1l-7.3-0.6l1.9-58.7
		l7.3,0.6L273.8,526.1z"/>
	<linearGradient id="SVGID_33_" gradientUnits="userSpaceOnUse" x1="296.7888" y1="530.8152" x2="319.1573" y2="530.8152">
		<stop  offset="5.338253e-04" style="stop-color:#000300;stop-opacity:0.5"/>
		<stop  offset="0.9989" style="stop-color:#000000;stop-opacity:0.5"/>
	</linearGradient>
	<path class="st39" d="M319.2,555.4l-4.6,4.7l-12.9,0.2l-4.7-4.5l-0.2-49.5l4.6-4.7l12.9-0.2l4.7,4.5L319.2,555.4z M305.7,507.8
		l-1.5,1.6l0.2,42.9l1.6,1.5l4.3-0.1l1.5-1.6l-0.2-42.9l-1.6-1.5L305.7,507.8z"/>
	<linearGradient id="SVGID_34_" gradientUnits="userSpaceOnUse" x1="323.0984" y1="527.2191" x2="366.3442" y2="527.2191">
		<stop  offset="5.338253e-04" style="stop-color:#000300;stop-opacity:0.5"/>
		<stop  offset="0.9989" style="stop-color:#000000;stop-opacity:0.5"/>
	</linearGradient>
	<path class="st40" d="M352.2,556.5l-6.8-48.7l-1.2,49.8l-10.3,1.5l-10.8-57.4l7.7-1.2l7.2,49.9l2.3-51.3l9.3-1.4l8,49.8l1.5-51.2
		l7.2-1.1l-4.2,59.5L352.2,556.5z"/>
</g>
<g>
	<path class="st17" d="M250.6,504l-1.4-1.8l-2.7-0.5l-1.6,1.3l-1.2,16.4l1.4,1.8l7.2,1.4l4.3,5.5l-1.7,23.5l-4.9,3.7l-11.6-2.2
		l-4.3-5.5l0.9-12.2l7.3,1.4l-0.6,9.1l1.4,1.8l3.1,0.6l1.6-1.3l1.3-17.1l-1.4-1.8l-7.2-1.4l-4.3-5.5l1.7-22.7l4.9-3.7l11.3,2.1
		l4.3,5.5l-1,12.3l-7.3-1.4L250.6,504z"/>
	<path class="st17" d="M271.7,525.2l7.8,0.6l0.9-26l7.3,0.6l-1.9,58.7l-7.3-0.6l0.9-26.1l-7.8-0.6l-0.9,26.1l-7.3-0.6l1.9-58.7
		l7.3,0.6L271.7,525.2z"/>
	<path class="st17" d="M317,554.5l-4.6,4.7l-12.9,0.2l-4.7-4.5l-0.2-49.5l4.6-4.7l12.9-0.2l4.7,4.5L317,554.5z M303.6,506.9
		l-1.5,1.6l0.2,42.9l1.6,1.5l4.3-0.1l1.5-1.6l-0.2-42.9l-1.6-1.5L303.6,506.9z"/>
	<path class="st17" d="M350,555.6l-6.8-48.7l-1.2,49.8l-10.3,1.5L321,500.8l7.7-1.2l7.2,49.9l2.3-51.3l9.3-1.4l8,49.8l1.5-51.2
		l7.2-1.1l-4.2,59.5L350,555.6z"/>
</g>
</svg>
